<?xml version="1.0" encoding="UTF-8" standalone="no"?>

<svg xmlns="http://www.w3.org/2000/svg" xmlns:xlink="http://www.w3.org/1999/xlink" width="700" height="400" viewBox="0 0 700 400">

<defs>
	<clipPath id="clipPath_E1">
		<rect x="0" y="0" width="700" height="400" />
	</clipPath>
</defs>

<g style="clip-path: url(#clipPath_E1);" stroke-linecap="round">
	<rect x="0" y="0" width="700" height="400" fill="#ffffff" fill-opacity="1"/>
	<rect x="0" y="0" width="1400" height="800" fill="#ffffff" fill-opacity="1" stroke="none" />
	<path fill="none" stroke="#000000" stroke-opacity="1" stroke-width="1.2" d="M 0 320.5 L 700 320.5 " />
	<path fill="none" stroke="#000000" stroke-opacity="1" stroke-width="1.2" d="M 350.5 0 L 350.5 400 " />
	<path fill="none" stroke="#000000" stroke-opacity="1" stroke-width="1" d="M -49.5 316.5 L -49.5 324.5 " />
	<path fill="none" stroke="#000000" stroke-opacity="1" stroke-width="1" d="M 350.5 316.5 L 350.5 324.5 " />
	<path fill="none" stroke="#000000" stroke-opacity="1" stroke-width="1" d="M 346.5 -79.5 L 354.5 -79.5 " />
	<path fill="none" stroke="#000000" stroke-opacity="1" stroke-width="1" d="M 346.5 320.5 L 354.5 320.5 " />
	<path fill="none" stroke="#000000" stroke-opacity="1" stroke-width="1" d="M -49.5 318.5 L -49.5 322.5 " />
	<path fill="none" stroke="#000000" stroke-opacity="1" stroke-width="1" d="M 150.5 318.5 L 150.5 322.5 " />
	<path fill="none" stroke="#000000" stroke-opacity="1" stroke-width="1" d="M 350.5 318.5 L 350.5 322.5 " />
	<path fill="none" stroke="#000000" stroke-opacity="1" stroke-width="1" d="M 550.5 318.5 L 550.5 322.5 " />
	<path fill="none" stroke="#000000" stroke-opacity="1" stroke-width="1" d="M 348.5 -79.5 L 352.5 -79.5 " />
	<path fill="none" stroke="#000000" stroke-opacity="1" stroke-width="1" d="M 348.5 120.5 L 352.5 120.5 " />
	<path fill="none" stroke="#000000" stroke-opacity="1" stroke-width="1" d="M 348.5 320.5 L 352.5 320.5 " />
	<path fill="none" stroke="#000000" stroke-opacity="1" stroke-width="1" d="M -9.5 319.5 L -9.5 321.5 " />
	<path fill="none" stroke="#000000" stroke-opacity="1" stroke-width="1" d="M 30.5 319.5 L 30.5 321.5 " />
	<path fill="none" stroke="#000000" stroke-opacity="1" stroke-width="1" d="M 70.5 319.5 L 70.5 321.5 " />
	<path fill="none" stroke="#000000" stroke-opacity="1" stroke-width="1" d="M 110.5 319.5 L 110.5 321.5 " />
	<path fill="none" stroke="#000000" stroke-opacity="1" stroke-width="1" d="M 150.5 319.5 L 150.5 321.5 " />
	<path fill="none" stroke="#000000" stroke-opacity="1" stroke-width="1" d="M 190.5 319.5 L 190.5 321.5 " />
	<path fill="none" stroke="#000000" stroke-opacity="1" stroke-width="1" d="M 230.5 319.5 L 230.5 321.5 " />
	<path fill="none" stroke="#000000" stroke-opacity="1" stroke-width="1" d="M 270.5 319.5 L 270.5 321.5 " />
	<path fill="none" stroke="#000000" stroke-opacity="1" stroke-width="1" d="M 310.5 319.5 L 310.5 321.5 " />
	<path fill="none" stroke="#000000" stroke-opacity="1" stroke-width="1" d="M 350.5 319.5 L 350.5 321.5 " />
	<path fill="none" stroke="#000000" stroke-opacity="1" stroke-width="1" d="M 390.5 319.5 L 390.5 321.5 " />
	<path fill="none" stroke="#000000" stroke-opacity="1" stroke-width="1" d="M 430.5 319.5 L 430.5 321.5 " />
	<path fill="none" stroke="#000000" stroke-opacity="1" stroke-width="1" d="M 470.5 319.5 L 470.5 321.5 " />
	<path fill="none" stroke="#000000" stroke-opacity="1" stroke-width="1" d="M 510.5 319.5 L 510.5 321.5 " />
	<path fill="none" stroke="#000000" stroke-opacity="1" stroke-width="1" d="M 550.5 319.5 L 550.5 321.5 " />
	<path fill="none" stroke="#000000" stroke-opacity="1" stroke-width="1" d="M 590.5 319.5 L 590.5 321.5 " />
	<path fill="none" stroke="#000000" stroke-opacity="1" stroke-width="1" d="M 630.5 319.5 L 630.5 321.5 " />
	<path fill="none" stroke="#000000" stroke-opacity="1" stroke-width="1" d="M 670.5 319.5 L 670.5 321.5 " />
	<path fill="none" stroke="#000000" stroke-opacity="1" stroke-width="1" d="M 349.5 0.5 L 351.5 0.5 " />
	<path fill="none" stroke="#000000" stroke-opacity="1" stroke-width="1" d="M 349.5 40.5 L 351.5 40.5 " />
	<path fill="none" stroke="#000000" stroke-opacity="1" stroke-width="1" d="M 349.5 80.5 L 351.5 80.5 " />
	<path fill="none" stroke="#000000" stroke-opacity="1" stroke-width="1" d="M 349.5 120.5 L 351.5 120.5 " />
	<path fill="none" stroke="#000000" stroke-opacity="1" stroke-width="1" d="M 349.5 160.5 L 351.5 160.5 " />
	<path fill="none" stroke="#000000" stroke-opacity="1" stroke-width="1" d="M 349.5 200.5 L 351.5 200.5 " />
	<path fill="none" stroke="#000000" stroke-opacity="1" stroke-width="1" d="M 349.5 240.5 L 351.5 240.5 " />
	<path fill="none" stroke="#000000" stroke-opacity="1" stroke-width="1" d="M 349.5 280.5 L 351.5 280.5 " />
	<path fill="none" stroke="#000000" stroke-opacity="1" stroke-width="1" d="M 349.5 320.5 L 351.5 320.5 " />
	<path fill="none" stroke="#000000" stroke-opacity="1" stroke-width="1" d="M 349.5 360.5 L 351.5 360.5 " />
	<path fill="none" stroke="#000000" stroke-opacity="1" stroke-width="2" d="M 110 176 L 190 256 " />
	<circle cx="110" cy="176" r="2" stroke="none" fill="#000000" fill-opacity="1" />
	<circle cx="190" cy="256" r="2" stroke="none" fill="#000000" fill-opacity="1" />
	<circle cx="110" cy="176" r="4" stroke="none" fill="#20303a" fill-opacity="1" />
	<circle cx="110" cy="320" r="4" stroke="none" fill="#20303a" fill-opacity="1" />
	<path fill="none" stroke="#000000" stroke-opacity="1" stroke-width="2" d="M 190 256 L 430 304 " />
	<circle cx="190" cy="256" r="2" stroke="none" fill="#000000" fill-opacity="1" />
	<circle cx="430" cy="304" r="2" stroke="none" fill="#000000" fill-opacity="1" />
	<circle cx="190" cy="320" r="4" stroke="none" fill="#20303a" fill-opacity="1" />
	<circle cx="190" cy="256" r="4" stroke="none" fill="#20303a" fill-opacity="1" />
	<path fill="none" stroke="#000000" stroke-opacity="1" stroke-width="2" d="M 430 304 L 470 284 " />
	<circle cx="430" cy="304" r="2" stroke="none" fill="#000000" fill-opacity="1" />
	<circle cx="470" cy="284" r="2" stroke="none" fill="#000000" fill-opacity="1" />
	<circle cx="430" cy="320" r="4" stroke="none" fill="#20303a" fill-opacity="1" />
	<circle cx="430" cy="304" r="4" stroke="none" fill="#20303a" fill-opacity="1" />
	<path fill="none" stroke="#000000" stroke-opacity="1" stroke-width="2" d="M 470 284 L 550 220 " />
	<circle cx="470" cy="284" r="2" stroke="none" fill="#000000" fill-opacity="1" />
	<circle cx="550" cy="220" r="2" stroke="none" fill="#000000" fill-opacity="1" />
	<circle cx="470" cy="320" r="4" stroke="none" fill="#20303a" fill-opacity="1" />
	<circle cx="470" cy="284" r="4" stroke="none" fill="#20303a" fill-opacity="1" />
	<path fill="none" stroke="#000000" stroke-opacity="1" stroke-width="2" d="M 550 220 L 630 124 " />
	<circle cx="550" cy="220" r="2" stroke="none" fill="#000000" fill-opacity="1" />
	<circle cx="630" cy="124" r="2" stroke="none" fill="#000000" fill-opacity="1" />
	<circle cx="550" cy="320" r="4" stroke="none" fill="#20303a" fill-opacity="1" />
	<circle cx="550" cy="220" r="4" stroke="none" fill="#20303a" fill-opacity="1" />
	<path fill="none" stroke="#000000" stroke-opacity="1" stroke-width="2" d="M 630 124 L 670 64 " />
	<circle cx="630" cy="124" r="2" stroke="none" fill="#000000" fill-opacity="1" />
	<circle cx="670" cy="64" r="2" stroke="none" fill="#000000" fill-opacity="1" />
	<circle cx="630" cy="320" r="4" stroke="none" fill="#20303a" fill-opacity="1" />
	<circle cx="630" cy="124" r="4" stroke="none" fill="#20303a" fill-opacity="1" />
	<path fill="none" stroke="#000000" stroke-opacity="1" stroke-width="2" d="M 670 64 L 110 176 " />
	<circle cx="670" cy="64" r="2" stroke="none" fill="#000000" fill-opacity="1" />
	<circle cx="110" cy="176" r="2" stroke="none" fill="#000000" fill-opacity="1" />
	<circle cx="670" cy="320" r="4" stroke="none" fill="#20303a" fill-opacity="1" />
	<circle cx="670" cy="64" r="4" stroke="none" fill="#20303a" fill-opacity="1" />
	<path fill="#834ec9" fill-opacity="0.7137" stroke="none" d="M 110 176 L 190 256 L 430 304 L 470 284 L 550 220 L 630 124 L 670 64 " />
	<path fill="none" stroke="#000000" stroke-opacity="1" stroke-width="1" d="M 110 176 L 190 256 L 430 304 L 470 284 L 550 220 L 630 124 L 670 64 " />
</g>


</svg>
