<?xml version="1.0" encoding="UTF-8" standalone="no"?>

<svg xmlns="http://www.w3.org/2000/svg" xmlns:xlink="http://www.w3.org/1999/xlink" width="500" height="295" viewBox="0 0 500 295">

<defs>
	<clipPath id="clipPath_E1">
		<rect x="0" y="0" width="500" height="295" />
	</clipPath>
</defs>

<g style="clip-path: url(#clipPath_E1);" stroke-linecap="round">
	<rect x="0" y="0" width="500" height="295" fill="#ffffff" fill-opacity="1"/>
	<rect x="0" y="0" width="1000" height="590" fill="#ffffff" fill-opacity="1" stroke="none" />
	<path fill="none" stroke="#000000" stroke-opacity="1" stroke-width="1.2" d="M 0 247.5 L 500 247.5 " />
	<path fill="none" stroke="#000000" stroke-opacity="1" stroke-width="1.2" d="M 250.5 0 L 250.5 295 " />
	<path fill="none" stroke="#000000" stroke-opacity="1" stroke-width="1" d="M -49.5 243.5 L -49.5 251.5 " />
	<path fill="none" stroke="#000000" stroke-opacity="1" stroke-width="1" d="M 250.5 243.5 L 250.5 251.5 " />
	<path fill="none" stroke="#000000" stroke-opacity="1" stroke-width="1" d="M 246.5 -52.5 L 254.5 -52.5 " />
	<path fill="none" stroke="#000000" stroke-opacity="1" stroke-width="1" d="M 246.5 247.5 L 254.5 247.5 " />
	<path fill="none" stroke="#000000" stroke-opacity="1" stroke-width="1" d="M -49.5 245.5 L -49.5 249.5 " />
	<path fill="none" stroke="#000000" stroke-opacity="1" stroke-width="1" d="M 100.5 245.5 L 100.5 249.5 " />
	<path fill="none" stroke="#000000" stroke-opacity="1" stroke-width="1" d="M 250.5 245.5 L 250.5 249.5 " />
	<path fill="none" stroke="#000000" stroke-opacity="1" stroke-width="1" d="M 400.5 245.5 L 400.5 249.5 " />
	<path fill="none" stroke="#000000" stroke-opacity="1" stroke-width="1" d="M 248.5 -52.5 L 252.5 -52.5 " />
	<path fill="none" stroke="#000000" stroke-opacity="1" stroke-width="1" d="M 248.5 97.5 L 252.5 97.5 " />
	<path fill="none" stroke="#000000" stroke-opacity="1" stroke-width="1" d="M 248.5 247.5 L 252.5 247.5 " />
	<path fill="none" stroke="#000000" stroke-opacity="1" stroke-width="1" d="M 10.5 246.5 L 10.5 248.5 " />
	<path fill="none" stroke="#000000" stroke-opacity="1" stroke-width="1" d="M 40.5 246.5 L 40.5 248.5 " />
	<path fill="none" stroke="#000000" stroke-opacity="1" stroke-width="1" d="M 70.5 246.5 L 70.5 248.5 " />
	<path fill="none" stroke="#000000" stroke-opacity="1" stroke-width="1" d="M 100.5 246.5 L 100.5 248.5 " />
	<path fill="none" stroke="#000000" stroke-opacity="1" stroke-width="1" d="M 130.5 246.5 L 130.5 248.5 " />
	<path fill="none" stroke="#000000" stroke-opacity="1" stroke-width="1" d="M 160.5 246.5 L 160.5 248.5 " />
	<path fill="none" stroke="#000000" stroke-opacity="1" stroke-width="1" d="M 190.5 246.5 L 190.5 248.5 " />
	<path fill="none" stroke="#000000" stroke-opacity="1" stroke-width="1" d="M 220.5 246.5 L 220.5 248.5 " />
	<path fill="none" stroke="#000000" stroke-opacity="1" stroke-width="1" d="M 250.5 246.5 L 250.5 248.5 " />
	<path fill="none" stroke="#000000" stroke-opacity="1" stroke-width="1" d="M 280.5 246.5 L 280.5 248.5 " />
	<path fill="none" stroke="#000000" stroke-opacity="1" stroke-width="1" d="M 310.5 246.5 L 310.5 248.5 " />
	<path fill="none" stroke="#000000" stroke-opacity="1" stroke-width="1" d="M 340.5 246.5 L 340.5 248.5 " />
	<path fill="none" stroke="#000000" stroke-opacity="1" stroke-width="1" d="M 370.5 246.5 L 370.5 248.5 " />
	<path fill="none" stroke="#000000" stroke-opacity="1" stroke-width="1" d="M 400.5 246.5 L 400.5 248.5 " />
	<path fill="none" stroke="#000000" stroke-opacity="1" stroke-width="1" d="M 430.5 246.5 L 430.5 248.5 " />
	<path fill="none" stroke="#000000" stroke-opacity="1" stroke-width="1" d="M 460.5 246.5 L 460.5 248.5 " />
	<path fill="none" stroke="#000000" stroke-opacity="1" stroke-width="1" d="M 490.5 246.5 L 490.5 248.5 " />
	<path fill="none" stroke="#000000" stroke-opacity="1" stroke-width="1" d="M 249.5 7.5 L 251.5 7.5 " />
	<path fill="none" stroke="#000000" stroke-opacity="1" stroke-width="1" d="M 249.5 37.5 L 251.5 37.5 " />
	<path fill="none" stroke="#000000" stroke-opacity="1" stroke-width="1" d="M 249.5 67.5 L 251.5 67.5 " />
	<path fill="none" stroke="#000000" stroke-opacity="1" stroke-width="1" d="M 249.5 97.5 L 251.5 97.5 " />
	<path fill="none" stroke="#000000" stroke-opacity="1" stroke-width="1" d="M 249.5 127.5 L 251.5 127.5 " />
	<path fill="none" stroke="#000000" stroke-opacity="1" stroke-width="1" d="M 249.5 157.5 L 251.5 157.5 " />
	<path fill="none" stroke="#000000" stroke-opacity="1" stroke-width="1" d="M 249.5 187.5 L 251.5 187.5 " />
	<path fill="none" stroke="#000000" stroke-opacity="1" stroke-width="1" d="M 249.5 217.5 L 251.5 217.5 " />
	<path fill="none" stroke="#000000" stroke-opacity="1" stroke-width="1" d="M 249.5 247.5 L 251.5 247.5 " />
	<path fill="none" stroke="#000000" stroke-opacity="1" stroke-width="1" d="M 249.5 277.5 L 251.5 277.5 " />
	<path fill="none" stroke="#00ff00" stroke-opacity="1" stroke-width="5" d="M 280 248 A 30 30 0 0 0 265 222.01923788646684" />
	<path fill="none" stroke="#0000ff" stroke-opacity="1" stroke-width="5" d="M 325 248 A 75 75 0 0 0 218.30363036944755 180.02691597225123" />
	<circle cx="190" cy="128" r="7" stroke="none" fill="#404040" fill-opacity="1" />
	<text fill="#404040" fill-opacity="1" x="210" y="147" style="font-size: 20px; font-family:descartesJS_serif,Times,'Times New Roman',serif; font-style:italic; ">p </text>
	<text fill="#404040" fill-opacity="1" x="220" y="152" style="font-size: 13px; font-family:descartesJS_serif,Times,'Times New Roman',serif; font-style:italic; ">3 </text>
	<circle cx="370" cy="38" r="7" stroke="none" fill="#404040" fill-opacity="1" />
	<text fill="#404040" fill-opacity="1" x="375" y="57" style="font-size: 20px; font-family:descartesJS_serif,Times,'Times New Roman',serif; font-style:italic; ">p </text>
	<text fill="#404040" fill-opacity="1" x="385" y="62" style="font-size: 13px; font-family:descartesJS_serif,Times,'Times New Roman',serif; font-style:italic; ">2 </text>
	<path fill="none" stroke="#20303a" stroke-opacity="1" stroke-width="2" d="M 245.9068537585561 249.11631261130287 L 360.51494851898474 48.55214678055276 L 352.08058656691856 47.18776470007148 L 369.56948414399693 38.7534027480053 L 371.18193569365667 58.10282134392182 L 365.72440737173144 51.52898041069378 L 251.11631261130287 252.0931462414439 L 245.9068537585561 249.11631261130287 " />
	<path fill="#00ff00" fill-opacity="1" stroke="none" d="M 245.9068537585561 249.11631261130287 L 360.51494851898474 48.55214678055276 L 352.08058656691856 47.18776470007148 L 369.56948414399693 38.7534027480053 L 371.18193569365667 58.10282134392182 L 365.72440737173144 51.52898041069378 L 251.11631261130287 252.0931462414439 L 245.9068537585561 249.11631261130287 " />
	<path fill="none" stroke="#000000" stroke-opacity="1" stroke-width="2" d="M 248.65835921350012 252.0249223594996 L 193.20387337150535 141.11595067551008 L 187.3900966300059 147.37694101250946 L 190.07337820300563 128.14675640601126 L 207.06749483200403 137.5382419115104 L 198.57043651750485 138.43266910251032 L 254.0249223594996 249.34164078649988 L 248.65835921350012 252.0249223594996 " />
	<path fill="#0000ff" fill-opacity="1" stroke="none" d="M 248.65835921350012 252.0249223594996 L 193.20387337150535 141.11595067551008 L 187.3900966300059 147.37694101250946 L 190.07337820300563 128.14675640601126 L 207.06749483200403 137.5382419115104 L 198.57043651750485 138.43266910251032 L 254.0249223594996 249.34164078649988 L 248.65835921350012 252.0249223594996 " />
	<circle cx="250" cy="248" r="7" stroke="none" fill="#ff0000" fill-opacity="1" />
	<text fill="#000000" fill-opacity="1" x="260" y="267" style="font-size: 20px; font-family:descartesJS_serif,Times,'Times New Roman',serif; font-style:italic; ">p </text>
	<text fill="#000000" fill-opacity="1" x="270" y="272" style="font-size: 13px; font-family:descartesJS_serif,Times,'Times New Roman',serif; font-style:italic; ">1 </text>
</g>


</svg>
