<?xml version="1.0" encoding="UTF-8" standalone="no"?>

<svg xmlns="http://www.w3.org/2000/svg" xmlns:xlink="http://www.w3.org/1999/xlink" width="500" height="320" viewBox="0 0 500 320">

<defs>
	<clipPath id="clipPath_E1">
		<rect x="0" y="0" width="500" height="320" />
	</clipPath>
</defs>

<g style="clip-path: url(#clipPath_E1);" stroke-linecap="round">
	<rect x="0" y="0" width="500" height="320" fill="#ffffff" fill-opacity="1"/>
	<rect x="0" y="0" width="1000" height="640" fill="#ffffff" fill-opacity="1" stroke="none" />
	<path fill="none" stroke="#ff0000" stroke-opacity="1" stroke-width="4" d="M 151.884094424746 75.95066325116466 A 36 36 0 0 0 185.45307910843948 46.251334396009526" />
	<path fill="none" stroke="#ff0000" stroke-opacity="1" stroke-width="4" d="M 354.2683385409124 65.61270363741468 A 36 36 0 0 0 374.7857425773348 102.62708033331938" />
	<path fill="none" stroke="#ff0000" stroke-opacity="1" stroke-width="4" d="M 176.75321371718618 214.0887018289189 A 36 36 0 0 0 153.13760673891574 154.13699086869715" />
	<path fill="none" stroke="#ff0000" stroke-opacity="1" stroke-width="4" d="M 246 250 A 36 36 0 0 0 184.54415587728428 224.5441558772843" />
	<path fill="none" stroke="#ff0000" stroke-opacity="1" stroke-width="4" d="M 326.06632062561386 216.86182527571214 A 36 36 0 0 0 276.02193022731257 248.74361811870997" />
	<path fill="none" stroke="#000000" stroke-opacity="1" stroke-width="3" d="M 390.5 70.5 L 312.5 250.5 " />
	<circle cx="390" cy="70" r="2" stroke="none" fill="#000000" fill-opacity="1" />
	<circle cx="312" cy="250" r="2" stroke="none" fill="#000000" fill-opacity="1" />
	<path fill="none" stroke="#000000" stroke-opacity="1" stroke-width="3" d="M 150.5 40.5 L 390.5 70.5 " />
	<circle cx="150" cy="40" r="2" stroke="none" fill="#000000" fill-opacity="1" />
	<circle cx="390" cy="70" r="2" stroke="none" fill="#000000" fill-opacity="1" />
	<path fill="none" stroke="#000000" stroke-opacity="1" stroke-width="3" d="M 150.5 40.5 L 150.5 190.5 " />
	<circle cx="150" cy="40" r="2" stroke="none" fill="#000000" fill-opacity="1" />
	<circle cx="150" cy="190" r="2" stroke="none" fill="#000000" fill-opacity="1" />
	<path fill="none" stroke="#000000" stroke-opacity="1" stroke-width="3" d="M 210.5 250.5 L 312.5 250.5 " />
	<circle cx="210" cy="250" r="2" stroke="none" fill="#000000" fill-opacity="1" />
	<circle cx="312" cy="250" r="2" stroke="none" fill="#000000" fill-opacity="1" />
	<path fill="none" stroke="#000000" stroke-opacity="1" stroke-width="3" d="M 150.5 190.5 L 210.5 250.5 " />
	<circle cx="150" cy="190" r="2" stroke="none" fill="#000000" fill-opacity="1" />
	<circle cx="210" cy="250" r="2" stroke="none" fill="#000000" fill-opacity="1" />
	<circle cx="150" cy="40" r="6" stroke="none" fill="#000000" fill-opacity="1" />
	<circle cx="390" cy="70" r="6" stroke="none" fill="#000000" fill-opacity="1" />
	<circle cx="150" cy="190" r="6" stroke="none" fill="#000000" fill-opacity="1" />
	<circle cx="210" cy="250" r="6" stroke="none" fill="#000000" fill-opacity="1" />
	<circle cx="312" cy="250" r="6" stroke="none" fill="#000000" fill-opacity="1" />
	<path fill="none" stroke="#ff0000" stroke-opacity="1" stroke-width="2" d="M 159.31294578224538 77.65035662579632 L 163.28848072093987 77.20863052149696 L 163.95106987738893 83.17193292953867 L 151.0305813266319 75.55215763037423 L 161.96330240804173 65.28202570541352 L 162.62589156449081 71.24532811345523 L 158.65035662579632 71.6870542177546 L 159.31294578224538 77.65035662579632 " />
	<path fill="#ee0022" fill-opacity="1" stroke="none" d="M 159.31294578224538 77.65035662579632 L 163.28848072093987 77.20863052149696 L 163.95106987738893 83.17193292953867 L 151.0305813266319 75.55215763037423 L 161.96330240804173 65.28202570541352 L 162.62589156449081 71.24532811345523 L 158.65035662579632 71.6870542177546 L 159.31294578224538 77.65035662579632 " />
	<path fill="none" stroke="#ff0000" stroke-opacity="1" stroke-width="2" d="M 176.82842712474618 214.99999999999997 L 182.4852813742385 209.34314575050752 L 188.14213562373092 212.17157287525364 L 174 215 L 176.82842712474604 200.85786437626902 L 179.65685424949228 206.51471862576136 L 173.99999999999997 212.17157287525382 L 176.82842712474618 214.99999999999997 " />
	<path fill="#ee0022" fill-opacity="1" stroke="none" d="M 176.82842712474618 214.99999999999997 L 182.4852813742385 209.34314575050752 L 188.14213562373092 212.17157287525364 L 174 215 L 176.82842712474604 200.85786437626902 L 179.65685424949228 206.51471862576136 L 173.99999999999997 212.17157287525382 L 176.82842712474618 214.99999999999997 " />
	<path fill="none" stroke="#ff0000" stroke-opacity="1" stroke-width="2" d="M 246.791066942378 241.81091818153803 L 246.592059504336 239.82084380111806 L 252.36327520755393 237.23374710657208 L 245.59702231412598 249.97022314125994 L 236.44268016419412 238.82580661090805 L 242.61191074349603 240.21885867720204 L 242.81091818153803 242.208933057622 L 246.791066942378 241.81091818153803 " />
	<path fill="#ee0022" fill-opacity="1" stroke="none" d="M 246.791066942378 241.81091818153803 L 246.592059504336 239.82084380111806 L 252.36327520755393 237.23374710657208 L 245.59702231412598 249.97022314125994 L 236.44268016419412 238.82580661090805 L 242.61191074349603 240.21885867720204 L 242.81091818153803 242.208933057622 L 246.791066942378 241.81091818153803 " />
	<path fill="none" stroke="#ff0000" stroke-opacity="1" stroke-width="2" d="M 324.6590432006904 214.509651658425 L 316.9964329189212 212.2108685738943 L 316.8048676618769 205.8892150914347 L 326 217 L 312.2073014928154 221.21443565497313 L 315.8470413766558 216.0421737147789 L 323.509651658425 218.34095679930962 L 324.6590432006904 214.509651658425 " />
	<path fill="#ee0022" fill-opacity="1" stroke="none" d="M 324.6590432006904 214.509651658425 L 316.9964329189212 212.2108685738943 L 316.8048676618769 205.8892150914347 L 326 217 L 312.2073014928154 221.21443565497313 L 315.8470413766558 216.0421737147789 L 323.509651658425 218.34095679930962 L 324.6590432006904 214.509651658425 " />
	<path fill="none" stroke="#ff0000" stroke-opacity="1" stroke-width="2" d="M 352.2089330576219 69.18908181846189 L 353.0049628097895 77.14937934014183 L 347.2337471065714 79.7364760346875 L 354 67 L 363.1543421499313 78.14441653035236 L 356.98511157062944 76.75136446405806 L 356.1890818184619 68.7910669423781 L 352.2089330576219 69.18908181846189 " />
	<path fill="#ee0022" fill-opacity="1" stroke="none" d="M 352.2089330576219 69.18908181846189 L 353.0049628097895 77.14937934014183 L 347.2337471065714 79.7364760346875 L 354 67 L 363.1543421499313 78.14441653035236 L 356.98511157062944 76.75136446405806 L 356.1890818184619 68.7910669423781 L 352.2089330576219 69.18908181846189 " />
</g>


</svg>
