<?xml version="1.0" encoding="UTF-8" standalone="no"?>

<svg xmlns="http://www.w3.org/2000/svg" xmlns:xlink="http://www.w3.org/1999/xlink" width="500" height="320" viewBox="0 0 500 320">

<defs>
	<clipPath id="clipPath_E1">
		<rect x="0" y="0" width="500" height="320" />
	</clipPath>
</defs>

<g style="clip-path: url(#clipPath_E1);" stroke-linecap="round">
	<rect x="0" y="0" width="500" height="320" fill="#ffffff" fill-opacity="1"/>
	<rect x="0" y="0" width="1000" height="640" fill="#ffffff" fill-opacity="1" stroke="none" />
	<path fill="none" stroke="#000000" stroke-opacity="1" stroke-width="3" d="M 356.5 118.5 L 294.5 262.5 " />
	<circle cx="356" cy="118" r="2" stroke="none" fill="#000000" fill-opacity="1" />
	<circle cx="294" cy="262" r="2" stroke="none" fill="#000000" fill-opacity="1" />
	<path fill="none" stroke="#000000" stroke-opacity="1" stroke-width="3" d="M 164.5 94.5 L 356.5 118.5 " />
	<circle cx="164" cy="94" r="2" stroke="none" fill="#000000" fill-opacity="1" />
	<circle cx="356" cy="118" r="2" stroke="none" fill="#000000" fill-opacity="1" />
	<path fill="none" stroke="#000000" stroke-opacity="1" stroke-width="3" d="M 92.5 310.5 L 164.5 214.5 " />
	<circle cx="92" cy="310" r="2" stroke="none" fill="#000000" fill-opacity="1" />
	<circle cx="164" cy="214" r="2" stroke="none" fill="#000000" fill-opacity="1" />
	<path fill="none" stroke="#000000" stroke-opacity="1" stroke-width="3" d="M 404.5 70.5 L 356.5 214.5 " />
	<circle cx="404" cy="70" r="2" stroke="none" fill="#000000" fill-opacity="1" />
	<circle cx="356" cy="214" r="2" stroke="none" fill="#000000" fill-opacity="1" />
	<path fill="none" stroke="#000000" stroke-opacity="1" stroke-width="3" d="M 164.5 94.5 L 164.5 214.5 " />
	<circle cx="164" cy="94" r="2" stroke="none" fill="#000000" fill-opacity="1" />
	<circle cx="164" cy="214" r="2" stroke="none" fill="#000000" fill-opacity="1" />
	<path fill="none" stroke="#000000" stroke-opacity="1" stroke-width="3" d="M 68.5 118.5 L 92.5 310.5 " />
	<circle cx="68" cy="118" r="2" stroke="none" fill="#000000" fill-opacity="1" />
	<circle cx="92" cy="310" r="2" stroke="none" fill="#000000" fill-opacity="1" />
	<path fill="none" stroke="#000000" stroke-opacity="1" stroke-width="3" d="M 356.5 214.5 L 294.5 262.5 " />
	<circle cx="356" cy="214" r="2" stroke="none" fill="#000000" fill-opacity="1" />
	<circle cx="294" cy="262" r="2" stroke="none" fill="#000000" fill-opacity="1" />
	<path fill="none" stroke="#000000" stroke-opacity="1" stroke-width="3" d="M 226.5 8.5 L 164.5 22.5 " />
	<circle cx="226" cy="8" r="2" stroke="none" fill="#000000" fill-opacity="1" />
	<circle cx="164" cy="22" r="2" stroke="none" fill="#000000" fill-opacity="1" />
	<path fill="none" stroke="#000000" stroke-opacity="1" stroke-width="3" d="M 212.5 262.5 L 294.5 262.5 " />
	<circle cx="212" cy="262" r="2" stroke="none" fill="#000000" fill-opacity="1" />
	<circle cx="294" cy="262" r="2" stroke="none" fill="#000000" fill-opacity="1" />
	<path fill="none" stroke="#000000" stroke-opacity="1" stroke-width="3" d="M 164.5 214.5 L 212.5 262.5 " />
	<circle cx="164" cy="214" r="2" stroke="none" fill="#000000" fill-opacity="1" />
	<circle cx="212" cy="262" r="2" stroke="none" fill="#000000" fill-opacity="1" />
	<path fill="none" stroke="#000000" stroke-opacity="1" stroke-width="3" d="M 164.5 94.5 L 68.5 118.5 " />
	<circle cx="164" cy="94" r="2" stroke="none" fill="#000000" fill-opacity="1" />
	<circle cx="68" cy="118" r="2" stroke="none" fill="#000000" fill-opacity="1" />
	<circle cx="226" cy="8" r="6" stroke="none" fill="#000000" fill-opacity="1" />
	<circle cx="164" cy="22" r="6" stroke="none" fill="#000000" fill-opacity="1" />
	<circle cx="404" cy="70" r="6" stroke="none" fill="#000000" fill-opacity="1" />
	<circle cx="164" cy="94" r="6" stroke="none" fill="#000000" fill-opacity="1" />
	<circle cx="68" cy="118" r="6" stroke="none" fill="#000000" fill-opacity="1" />
	<circle cx="356" cy="118" r="6" stroke="none" fill="#000000" fill-opacity="1" />
	<circle cx="164" cy="214" r="6" stroke="none" fill="#000000" fill-opacity="1" />
	<circle cx="356" cy="214" r="6" stroke="none" fill="#000000" fill-opacity="1" />
	<circle cx="212" cy="262" r="6" stroke="none" fill="#000000" fill-opacity="1" />
	<circle cx="294" cy="262" r="6" stroke="none" fill="#000000" fill-opacity="1" />
	<circle cx="92" cy="310" r="6" stroke="none" fill="#000000" fill-opacity="1" />
</g>


</svg>
