<svg version="1.1" xmlns="http://www.w3.org/2000/svg" xmlns:xlink="http://www.w3.org/1999/xlink" width="1106" height="712"><defs><clipPath id="MegdKzOkycmg"><path fill="none" stroke="none" d=" M 0 0 L 1106 0 L 1106 712 L 0 712 L 0 0 Z"/></clipPath></defs><g transform="scale(1,1)" clip-path="url(#MegdKzOkycmg)"><g><rect fill="rgb(255,255,255)" stroke="none" x="0" y="0" width="1106" height="712" fill-opacity="1"/><path fill="none" stroke="rgb(211,47,47)" paint-order="fill stroke markers" d=" M 178.68172675562892 436.14838765490845 C 179.76370120789085 423.88601052927316 174.47327705528645 411.92709412594525 164.6718717216321 404.47934178231407 C 154.87046638797779 397.0315894386829 141.93135846067963 395.1385085365617 130.40712827162986 399.4661730379348 L 143.0000000000003 433 Z" stroke-opacity="0.8" stroke-linecap="round" stroke-linejoin="round" stroke-miterlimit="10" stroke-width="3"/><path fill="none" stroke="rgb(211,47,47)" paint-order="fill stroke markers" d=" M 67.89619314991612 233.00446939921392 C 78.32471351023827 229.08827398964144 86.61667258664063 220.9535214417653 90.73173798652613 210.6018616644023 C 94.84680338641161 200.25020188703928 94.40291970310062 188.64271500935553 89.50930964853129 178.63555736967444 L 54.00000000000034 196.00000000000003 Z" stroke-opacity="0.8" stroke-linecap="round" stroke-linejoin="round" stroke-miterlimit="10" stroke-width="2.5"/><path fill="rgb(21,101,192)" stroke="none" paint-order="stroke fill markers" d=" M 130.40712827162986 399.4661730379348 C 113.81042256984534 405.69869121286655 104.26942174743743 423.1341396592327 107.96772546931926 440.4724634690252 C 111.66602919120109 457.81078727881766 127.49097508110619 469.83562186398575 145.18628794070702 468.7535748440522 C 162.88160080030787 467.67152782411864 177.1235132119508 453.8081411499264 178.6817267556289 436.14838765490845 L 143.0000000000003 433 Z" fill-opacity="0.09803921568627451"/><path fill="none" stroke="rgb(21,101,192)" paint-order="fill stroke markers" d=" M 130.40712827162986 399.4661730379348 C 113.81042256984534 405.69869121286655 104.26942174743743 423.1341396592327 107.96772546931926 440.4724634690252 C 111.66602919120109 457.81078727881766 127.49097508110619 469.83562186398575 145.18628794070702 468.7535748440522 C 162.88160080030787 467.67152782411864 177.1235132119508 453.8081411499264 178.6817267556289 436.14838765490845 L 143.0000000000003 433 Z" stroke-opacity="0.8" stroke-linecap="round" stroke-linejoin="round" stroke-miterlimit="10" stroke-width="2.5"/><path fill="rgb(21,101,192)" stroke="none" paint-order="stroke fill markers" d=" M 338.60092566559274 450.2589052057876 C 336.64525855026363 472.4231325128507 352.090684529634 492.35370099082854 374.0416835632076 495.9911791575249 C 395.9926825967812 499.62865732422136 417.04134926570714 485.74548855768904 422.33952270842553 464.13514464196163 C 427.6376961511439 442.52480072623433 415.3973772111564 420.48022461810837 394.25313773457646 413.55211210876087 L 381.0000000000002 454 Z" fill-opacity="0.09803921568627451"/><path fill="none" stroke="rgb(21,101,192)" paint-order="fill stroke markers" d=" M 338.60092566559274 450.2589052057876 C 336.64525855026363 472.4231325128507 352.090684529634 492.35370099082854 374.0416835632076 495.9911791575249 C 395.9926825967812 499.62865732422136 417.04134926570714 485.74548855768904 422.33952270842553 464.13514464196163 C 427.6376961511439 442.52480072623433 415.3973772111564 420.48022461810837 394.25313773457646 413.55211210876087 L 381.0000000000002 454 Z" stroke-opacity="0.8" stroke-linecap="round" stroke-linejoin="round" stroke-miterlimit="10" stroke-width="2.5"/><path fill="none" stroke="rgb(211,47,47)" paint-order="fill stroke markers" d=" M 394.01361193534353 414.2831324051211 C 381.8973374963835 410.31311907831287 368.63157459437303 412.09092183985047 357.9881387372726 419.1110632380717 C 347.3447028801722 426.131204636293 340.48786511022837 437.6257609055867 339.3672100255741 450.3265185316683 L 381.0000000000002 454 Z" stroke-opacity="0.8" stroke-linecap="round" stroke-linejoin="round" stroke-miterlimit="10" stroke-width="2.5"/><path fill="none" stroke="rgb(211,47,47)" paint-order="fill stroke markers" d=" M 422.6958859045596 201.18891541130927 C 417.5055152316632 211.47697156651458 417.06110515666876 223.51731584801854 421.4789201202441 234.16001090718146 C 425.8967350838194 244.80270596634438 434.73722580574747 252.9888597962821 445.6875853384662 256.5768499410452 L 458.00000000000017 219.00000000000003 Z" stroke-opacity="0.8" stroke-linecap="round" stroke-linejoin="round" stroke-miterlimit="10" stroke-width="2.5"/><path fill="rgb(21,101,192)" stroke="none" paint-order="stroke fill markers" d=" M 446.0936235552883 255.33764239619865 C 465.45357846751983 261.68111698446177 486.38737135825767 251.73210543764583 493.694374675786 232.714870450056 C 501.00137799331435 213.6976354624662 492.1154005433198 192.2909561237838 473.4888054668401 184.03883640140697 C 454.86221039036036 175.78671667903012 433.03658555702714 183.58726897906428 423.8601432763146 201.77628849976225 L 458.00000000000017 219.00000000000003 Z" fill-opacity="0.09803921568627451"/><path fill="none" stroke="rgb(21,101,192)" paint-order="fill stroke markers" d=" M 446.0936235552883 255.33764239619865 C 465.45357846751983 261.68111698446177 486.38737135825767 251.73210543764583 493.694374675786 232.714870450056 C 501.00137799331435 213.6976354624662 492.1154005433198 192.2909561237838 473.4888054668401 184.03883640140697 C 454.86221039036036 175.78671667903012 433.03658555702714 183.58726897906428 423.8601432763146 201.77628849976225 L 458.00000000000017 219.00000000000003 Z" stroke-opacity="0.8" stroke-linecap="round" stroke-linejoin="round" stroke-miterlimit="10" stroke-width="2.5"/><path fill="none" stroke="rgb(211,47,47)" paint-order="fill stroke markers" d=" M 198.3239369039768 125.42400887662694 C 205.31980443172586 139.73016494460822 219.81463665246585 148.83983879889018 235.7394120979751 148.93878786334787 C 251.66418754348436 149.03773692780555 266.27110266265265 140.10888764359183 273.44420660536395 125.89077090000333 L 236.00000000000028 107.00000000000006 Z" stroke-opacity="0.8" stroke-linecap="round" stroke-linejoin="round" stroke-miterlimit="10" stroke-width="2.5"/><path fill="rgb(21,101,192)" stroke="none" paint-order="stroke fill markers" d=" M 272.9695705373802 125.65131486570519 C 281.72835512610396 108.29015255591335 277.2267470626451 87.17319282412603 262.14923728710494 74.89333276030234 C 247.07172751156472 62.61347269647866 225.48070008100152 62.47931620728708 210.25175782617157 74.57086623272454 C 195.02281557134165 86.66241625816191 190.25914351038668 107.72180589714723 198.80151194338072 125.19046943428107 L 236.00000000000028 107.00000000000006 Z" fill-opacity="0.09803921568627451"/><path fill="none" stroke="rgb(21,101,192)" paint-order="fill stroke markers" d=" M 272.9695705373802 125.65131486570519 C 281.72835512610396 108.29015255591335 277.2267470626451 87.17319282412603 262.14923728710494 74.89333276030234 C 247.07172751156472 62.61347269647866 225.48070008100152 62.47931620728708 210.25175782617157 74.57086623272454 C 195.02281557134165 86.66241625816191 190.25914351038668 107.72180589714723 198.80151194338072 125.19046943428107 L 236.00000000000028 107.00000000000006 Z" stroke-opacity="0.8" stroke-linecap="round" stroke-linejoin="round" stroke-miterlimit="10" stroke-width="2.5"/><path fill="rgb(21,101,192)" stroke="none" paint-order="stroke fill markers" d=" M 89.50930964853151 178.63555736967433 C 80.1345479184211 159.46469630360585 57.2353383689601 151.19625465738028 37.775562792729374 159.95554721063917 C 18.315787216498656 168.71483976389808 9.322059909674806 191.3390258128514 17.45699193654486 211.06796274389376 C 25.59192396341492 230.7968996749361 47.91812123870231 240.5067833236784 67.89619314991617 233.00446939921414 L 54.00000000000034 196.00000000000003 Z" fill-opacity="0.09803921568627451"/><path fill="none" stroke="rgb(21,101,192)" paint-order="fill stroke markers" d=" M 89.50930964853151 178.63555736967433 C 80.1345479184211 159.46469630360585 57.2353383689601 151.19625465738028 37.775562792729374 159.95554721063917 C 18.315787216498656 168.71483976389808 9.322059909674806 191.3390258128514 17.45699193654486 211.06796274389376 C 25.59192396341492 230.7968996749361 47.91812123870231 240.5067833236784 67.89619314991617 233.00446939921414 L 54.00000000000034 196.00000000000003 Z" stroke-opacity="0.8" stroke-linecap="round" stroke-linejoin="round" stroke-miterlimit="10" stroke-width="2.5"/><path fill="none" stroke="rgb(97,97,97)" paint-order="fill stroke markers" d=" M 54.00000000000034 196.00000000000003 L 236.00000000000028 107.00000000000006" stroke-opacity="0.8" stroke-linecap="round" stroke-linejoin="round" stroke-miterlimit="10" stroke-width="2.5"/><path fill="none" stroke="rgb(97,97,97)" paint-order="fill stroke markers" d=" M 236.00000000000028 107.00000000000006 L 458.00000000000017 219.00000000000003" stroke-opacity="0.8" stroke-linecap="round" stroke-linejoin="round" stroke-miterlimit="10" stroke-width="2.5"/><path fill="none" stroke="rgb(97,97,97)" paint-order="fill stroke markers" d=" M 458.00000000000017 219.00000000000003 L 381.0000000000002 454" stroke-opacity="0.8" stroke-linecap="round" stroke-linejoin="round" stroke-miterlimit="10" stroke-width="2.5"/><path fill="none" stroke="rgb(97,97,97)" paint-order="fill stroke markers" d=" M 381.0000000000002 454 L 143.0000000000003 433" stroke-opacity="0.8" stroke-linecap="round" stroke-linejoin="round" stroke-miterlimit="10" stroke-width="2.5"/><path fill="none" stroke="rgb(97,97,97)" paint-order="fill stroke markers" d=" M 143.0000000000003 433 L 54.00000000000034 196.00000000000003" stroke-opacity="0.8" stroke-linecap="round" stroke-linejoin="round" stroke-miterlimit="10" stroke-width="2.5"/><path fill="rgb(21,101,192)" stroke="none" paint-order="stroke fill markers" d=" M 59.00000000000034 196.00000000000003 C 59.00000000000034 198.761423749154 56.761423749154304 201.00000000000003 54.00000000000034 201.00000000000003 C 51.23857625084637 201.00000000000003 49.00000000000034 198.761423749154 49.00000000000034 196.00000000000003 C 49.00000000000034 193.23857625084605 51.23857625084637 191.00000000000003 54.00000000000034 191.00000000000003 C 56.761423749154304 191.00000000000003 59.00000000000034 193.23857625084605 59.00000000000034 196.00000000000003 Z" fill-opacity="1"/><path fill="none" stroke="rgb(0,0,0)" paint-order="fill stroke markers" d=" M 59.00000000000034 196.00000000000003 C 59.00000000000034 198.761423749154 56.761423749154304 201.00000000000003 54.00000000000034 201.00000000000003 C 51.23857625084637 201.00000000000003 49.00000000000034 198.761423749154 49.00000000000034 196.00000000000003 C 49.00000000000034 193.23857625084605 51.23857625084637 191.00000000000003 54.00000000000034 191.00000000000003 C 56.761423749154304 191.00000000000003 59.00000000000034 193.23857625084605 59.00000000000034 196.00000000000003 Z" stroke-opacity="1" stroke-linecap="round" stroke-linejoin="round" stroke-miterlimit="10"/><path fill="rgb(21,101,192)" stroke="none" paint-order="stroke fill markers" d=" M 241.00000000000028 107.00000000000006 C 241.00000000000028 109.76142374915402 238.76142374915426 112.00000000000006 236.00000000000028 112.00000000000006 C 233.2385762508463 112.00000000000006 231.00000000000028 109.76142374915402 231.00000000000028 107.00000000000006 C 231.00000000000028 104.2385762508461 233.2385762508463 102.00000000000006 236.00000000000028 102.00000000000006 C 238.76142374915426 102.00000000000006 241.00000000000028 104.2385762508461 241.00000000000028 107.00000000000006 Z" fill-opacity="1"/><path fill="none" stroke="rgb(0,0,0)" paint-order="fill stroke markers" d=" M 241.00000000000028 107.00000000000006 C 241.00000000000028 109.76142374915402 238.76142374915426 112.00000000000006 236.00000000000028 112.00000000000006 C 233.2385762508463 112.00000000000006 231.00000000000028 109.76142374915402 231.00000000000028 107.00000000000006 C 231.00000000000028 104.2385762508461 233.2385762508463 102.00000000000006 236.00000000000028 102.00000000000006 C 238.76142374915426 102.00000000000006 241.00000000000028 104.2385762508461 241.00000000000028 107.00000000000006 Z" stroke-opacity="1" stroke-linecap="round" stroke-linejoin="round" stroke-miterlimit="10"/><path fill="rgb(21,101,192)" stroke="none" paint-order="stroke fill markers" d=" M 463.00000000000017 219.00000000000003 C 463.00000000000017 221.761423749154 460.7614237491541 224.00000000000003 458.00000000000017 224.00000000000003 C 455.2385762508462 224.00000000000003 453.00000000000017 221.761423749154 453.00000000000017 219.00000000000003 C 453.00000000000017 216.23857625084605 455.2385762508462 214.00000000000003 458.00000000000017 214.00000000000003 C 460.7614237491541 214.00000000000003 463.00000000000017 216.23857625084605 463.00000000000017 219.00000000000003 Z" fill-opacity="1"/><path fill="none" stroke="rgb(0,0,0)" paint-order="fill stroke markers" d=" M 463.00000000000017 219.00000000000003 C 463.00000000000017 221.761423749154 460.7614237491541 224.00000000000003 458.00000000000017 224.00000000000003 C 455.2385762508462 224.00000000000003 453.00000000000017 221.761423749154 453.00000000000017 219.00000000000003 C 453.00000000000017 216.23857625084605 455.2385762508462 214.00000000000003 458.00000000000017 214.00000000000003 C 460.7614237491541 214.00000000000003 463.00000000000017 216.23857625084605 463.00000000000017 219.00000000000003 Z" stroke-opacity="1" stroke-linecap="round" stroke-linejoin="round" stroke-miterlimit="10"/><path fill="rgb(21,101,192)" stroke="none" paint-order="stroke fill markers" d=" M 386.0000000000002 454 C 386.0000000000002 456.76142374915395 383.7614237491542 459 381.0000000000002 459 C 378.2385762508463 459 376.0000000000002 456.76142374915395 376.0000000000002 454 C 376.0000000000002 451.23857625084605 378.2385762508463 449 381.0000000000002 449 C 383.7614237491542 449 386.0000000000002 451.23857625084605 386.0000000000002 454 Z" fill-opacity="1"/><path fill="none" stroke="rgb(0,0,0)" paint-order="fill stroke markers" d=" M 386.0000000000002 454 C 386.0000000000002 456.76142374915395 383.7614237491542 459 381.0000000000002 459 C 378.2385762508463 459 376.0000000000002 456.76142374915395 376.0000000000002 454 C 376.0000000000002 451.23857625084605 378.2385762508463 449 381.0000000000002 449 C 383.7614237491542 449 386.0000000000002 451.23857625084605 386.0000000000002 454 Z" stroke-opacity="1" stroke-linecap="round" stroke-linejoin="round" stroke-miterlimit="10"/><path fill="rgb(21,101,192)" stroke="none" paint-order="stroke fill markers" d=" M 154.0000000000003 433 C 154.0000000000003 439.07513224813874 149.07513224813903 444 143.0000000000003 444 C 136.9248677518616 444 132.0000000000003 439.07513224813874 132.0000000000003 433 C 132.0000000000003 426.92486775186126 136.9248677518616 422 143.0000000000003 422 C 149.07513224813903 422 154.0000000000003 426.92486775186126 154.0000000000003 433 Z" fill-opacity="0.2"/><path fill="none" stroke="rgb(21,101,192)" paint-order="fill stroke markers" d=" M 154.0000000000003 433 C 154.0000000000003 439.07513224813874 149.07513224813903 444 143.0000000000003 444 C 136.9248677518616 444 132.0000000000003 439.07513224813874 132.0000000000003 433 C 132.0000000000003 426.92486775186126 136.9248677518616 422 143.0000000000003 422 C 149.07513224813903 422 154.0000000000003 426.92486775186126 154.0000000000003 433 Z" stroke-opacity="1" stroke-linecap="square" stroke-miterlimit="10" stroke-width="2"/><path fill="rgb(21,101,192)" stroke="none" paint-order="stroke fill markers" d=" M 148.0000000000003 433 C 148.0000000000003 435.76142374915395 145.7614237491543 438 143.0000000000003 438 C 140.23857625084634 438 138.0000000000003 435.76142374915395 138.0000000000003 433 C 138.0000000000003 430.23857625084605 140.23857625084634 428 143.0000000000003 428 C 145.7614237491543 428 148.0000000000003 430.23857625084605 148.0000000000003 433 Z" fill-opacity="1"/><path fill="none" stroke="rgb(0,0,0)" paint-order="fill stroke markers" d=" M 148.0000000000003 433 C 148.0000000000003 435.76142374915395 145.7614237491543 438 143.0000000000003 438 C 140.23857625084634 438 138.0000000000003 435.76142374915395 138.0000000000003 433 C 138.0000000000003 430.23857625084605 140.23857625084634 428 143.0000000000003 428 C 145.7614237491543 428 148.0000000000003 430.23857625084605 148.0000000000003 433 Z" stroke-opacity="1" stroke-linecap="round" stroke-linejoin="round" stroke-miterlimit="10"/><path fill="none" stroke="rgb(211,47,47)" paint-order="fill stroke markers" d=" M 173.68172675562892 436.1483876549084 L 181.18172675562892 440.4785146738306 L 181.18172675562892 431.8182606359862 L 173.68172675562892 436.1483876549084 Z" stroke-opacity="1" stroke-linecap="square" stroke-miterlimit="10" stroke-width="2.5"/><path fill="rgb(211,47,47)" stroke="none" paint-order="stroke fill markers" fill-rule="evenodd" d=" M 173.68172675562892 436.1483876549084 L 181.18172675562892 440.4785146738306 L 181.18172675562892 431.8182606359862 L 173.68172675562892 436.1483876549084 Z" fill-opacity="1"/><path fill="none" stroke="rgb(21,101,192)" paint-order="fill stroke markers" d=" M 134.4071282716299 399.4661730379348 L 128.4071282716299 402.93027465307256 L 128.4071282716299 396.0020714227971 L 134.4071282716299 399.4661730379348 Z" stroke-opacity="1" stroke-linecap="square" stroke-miterlimit="10" stroke-width="2"/><path fill="rgb(21,101,192)" stroke="none" paint-order="stroke fill markers" fill-rule="evenodd" d=" M 134.4071282716299 399.4661730379348 L 128.4071282716299 402.93027465307256 L 128.4071282716299 396.0020714227971 L 134.4071282716299 399.4661730379348 Z" fill-opacity="1"/><path fill="none" stroke="rgb(21,101,192)" paint-order="fill stroke markers" d=" M 338.60092566559274 445.2589052057875 L 342.93105268451495 452.7589052057875 L 334.2707986466705 452.7589052057875 L 338.60092566559274 445.2589052057875 Z" stroke-opacity="1" stroke-linecap="square" stroke-miterlimit="10" stroke-width="2.5"/><path fill="rgb(21,101,192)" stroke="none" paint-order="stroke fill markers" fill-rule="evenodd" d=" M 338.60092566559274 445.2589052057875 L 342.93105268451495 452.7589052057875 L 334.2707986466705 452.7589052057875 L 338.60092566559274 445.2589052057875 Z" fill-opacity="1"/><path fill="none" stroke="rgb(211,47,47)" paint-order="fill stroke markers" d=" M 399.01361193534353 414.283132405121 L 391.51361193534353 418.61325942404324 L 391.51361193534353 409.9530053861988 L 399.01361193534353 414.283132405121 Z" stroke-opacity="1" stroke-linecap="square" stroke-miterlimit="10" stroke-width="2.5"/><path fill="rgb(211,47,47)" stroke="none" paint-order="stroke fill markers" fill-rule="evenodd" d=" M 399.01361193534353 414.283132405121 L 391.51361193534353 418.61325942404324 L 391.51361193534353 409.9530053861988 L 399.01361193534353 414.283132405121 Z" fill-opacity="1"/><path fill="none" stroke="rgb(211,47,47)" paint-order="fill stroke markers" d=" M 422.6958859045596 196.18891541130927 L 427.0260129234818 203.68891541130927 L 418.3657588856374 203.68891541130927 L 422.6958859045596 196.18891541130927 Z" stroke-opacity="1" stroke-linecap="square" stroke-miterlimit="10" stroke-width="2.5"/><path fill="rgb(211,47,47)" stroke="none" paint-order="stroke fill markers" fill-rule="evenodd" d=" M 422.6958859045596 196.18891541130927 L 427.0260129234818 203.68891541130927 L 418.3657588856374 203.68891541130927 L 422.6958859045596 196.18891541130927 Z" fill-opacity="1"/><path fill="none" stroke="rgb(21,101,192)" paint-order="fill stroke markers" d=" M 441.09362355528833 255.33764239619865 L 448.59362355528833 259.66776941512086 L 448.59362355528833 251.00751537727646 L 441.09362355528833 255.33764239619865 Z" stroke-opacity="1" stroke-linecap="square" stroke-miterlimit="10" stroke-width="2.5"/><path fill="rgb(21,101,192)" stroke="none" paint-order="stroke fill markers" fill-rule="evenodd" d=" M 441.09362355528833 255.33764239619865 L 448.59362355528833 259.66776941512086 L 448.59362355528833 251.00751537727646 L 441.09362355528833 255.33764239619865 Z" fill-opacity="1"/><path fill="none" stroke="rgb(211,47,47)" paint-order="fill stroke markers" d=" M 198.32393690397677 120.42400887662694 L 202.65406392289896 127.92400887662694 L 193.9938098850546 127.92400887662694 L 198.32393690397677 120.42400887662694 Z" stroke-opacity="1" stroke-linecap="square" stroke-miterlimit="10" stroke-width="2.5"/><path fill="rgb(211,47,47)" stroke="none" paint-order="stroke fill markers" fill-rule="evenodd" d=" M 198.32393690397677 120.42400887662694 L 202.65406392289896 127.92400887662694 L 193.9938098850546 127.92400887662694 L 198.32393690397677 120.42400887662694 Z" fill-opacity="1"/><path fill="none" stroke="rgb(21,101,192)" paint-order="fill stroke markers" d=" M 272.96957053738015 130.65131486570522 L 277.29969755630236 123.15131486570522 L 268.63944351845794 123.15131486570522 L 272.96957053738015 130.65131486570522 Z" stroke-opacity="1" stroke-linecap="square" stroke-miterlimit="10" stroke-width="2.5"/><path fill="rgb(21,101,192)" stroke="none" paint-order="stroke fill markers" fill-rule="evenodd" d=" M 272.96957053738015 130.65131486570522 L 277.29969755630236 123.15131486570522 L 268.63944351845794 123.15131486570522 L 272.96957053738015 130.65131486570522 Z" fill-opacity="1"/><path fill="none" stroke="rgb(21,101,192)" paint-order="fill stroke markers" d=" M 89.50930964853154 182.63555736967433 L 92.97341126366929 176.63555736967433 L 86.04520803339379 176.63555736967433 L 89.50930964853154 182.63555736967433 Z" stroke-opacity="1" stroke-linecap="square" stroke-miterlimit="10" stroke-width="2"/><path fill="rgb(21,101,192)" stroke="none" paint-order="stroke fill markers" fill-rule="evenodd" d=" M 89.50930964853154 182.63555736967433 L 92.97341126366929 176.63555736967433 L 86.04520803339379 176.63555736967433 L 89.50930964853154 182.63555736967433 Z" fill-opacity="1"/><path fill="none" stroke="rgb(211,47,47)" paint-order="fill stroke markers" d=" M 63.89619314991609 233.00446939921392 L 69.89619314991609 236.46857101435168 L 69.89619314991609 229.54036778407615 L 63.89619314991609 233.00446939921392 Z" stroke-opacity="1" stroke-linecap="square" stroke-miterlimit="10" stroke-width="2"/><path fill="rgb(211,47,47)" stroke="none" paint-order="stroke fill markers" fill-rule="evenodd" d=" M 63.89619314991609 233.00446939921392 L 69.89619314991609 236.46857101435168 L 69.89619314991609 229.54036778407615 L 63.89619314991609 233.00446939921392 Z" fill-opacity="1"/></g></g></svg>