<?xml version="1.0" encoding="UTF-8" standalone="no"?>

<svg xmlns="http://www.w3.org/2000/svg" xmlns:xlink="http://www.w3.org/1999/xlink" width="570" height="350" viewBox="0 0 570 350">

<defs>
	<clipPath id="clipPath_E1">
		<rect x="0" y="0" width="570" height="350" />
	</clipPath>
</defs>

<g style="clip-path: url(#clipPath_E1);" stroke-linecap="round">
	<rect x="0" y="0" width="570" height="350" fill="#ffffff" fill-opacity="1"/>
	<rect x="0" y="0" width="1140" height="700" fill="#ffffff" fill-opacity="1" stroke="none" />
	<path fill="none" stroke="#0000ff" stroke-opacity="1" stroke-width="3" d="M 127.5 325.5 L 199.5 229.5 " />
	<circle cx="127" cy="325" r="2" stroke="none" fill="#0000ff" fill-opacity="1" />
	<circle cx="199" cy="229" r="2" stroke="none" fill="#0000ff" fill-opacity="1" />
	<path fill="none" stroke="#ff00ff" stroke-opacity="1" stroke-width="3" d="M 391.5 133.5 L 199.5 37.5 " />
	<circle cx="391" cy="133" r="2" stroke="none" fill="#ff00ff" fill-opacity="1" />
	<circle cx="199" cy="37" r="2" stroke="none" fill="#ff00ff" fill-opacity="1" />
	<path fill="none" stroke="#ffafaf" stroke-opacity="1" stroke-width="3" d="M 261.5 32.5 L 329.5 277.5 " />
	<circle cx="261" cy="32" r="2" stroke="none" fill="#ffafaf" fill-opacity="1" />
	<circle cx="329" cy="277" r="2" stroke="none" fill="#ffafaf" fill-opacity="1" />
	<path fill="none" stroke="#c0c0c0" stroke-opacity="1" stroke-width="3" d="M 439.5 133.5 L 391.5 229.5 " />
	<circle cx="439" cy="133" r="2" stroke="none" fill="#c0c0c0" fill-opacity="1" />
	<circle cx="391" cy="229" r="2" stroke="none" fill="#c0c0c0" fill-opacity="1" />
	<path fill="none" stroke="#ffc800" stroke-opacity="1" stroke-width="3" d="M 199.5 133.5 L 199.5 229.5 " />
	<circle cx="199" cy="133" r="2" stroke="none" fill="#ffc800" fill-opacity="1" />
	<circle cx="199" cy="229" r="2" stroke="none" fill="#ffc800" fill-opacity="1" />
	<path fill="none" stroke="#00ff00" stroke-opacity="1" stroke-width="3" d="M 103.5 133.5 L 247.5 277.5 " />
	<circle cx="103" cy="133" r="2" stroke="none" fill="#00ff00" fill-opacity="1" />
	<circle cx="247" cy="277" r="2" stroke="none" fill="#00ff00" fill-opacity="1" />
	<circle cx="127" cy="325" r="6" stroke="none" fill="#20303a" fill-opacity="1" />
	<circle cx="199" cy="229" r="6" stroke="none" fill="#ff0000" fill-opacity="1" />
	<circle cx="391" cy="133" r="6" stroke="none" fill="#20303a" fill-opacity="1" />
	<circle cx="199" cy="37" r="6" stroke="none" fill="#20303a" fill-opacity="1" />
	<circle cx="261" cy="32" r="6" stroke="none" fill="#20303a" fill-opacity="1" />
	<circle cx="329" cy="277" r="6" stroke="none" fill="#20303a" fill-opacity="1" />
	<circle cx="439" cy="133" r="6" stroke="none" fill="#20303a" fill-opacity="1" />
	<circle cx="391" cy="229" r="6" stroke="none" fill="#20303a" fill-opacity="1" />
	<circle cx="199" cy="133" r="6" stroke="none" fill="#20303a" fill-opacity="1" />
	<circle cx="103" cy="133" r="6" stroke="none" fill="#20303a" fill-opacity="1" />
	<circle cx="247" cy="277" r="6" stroke="none" fill="#20303a" fill-opacity="1" />
	<circle cx="273" cy="74" r="6" stroke="none" fill="#ff0000" fill-opacity="1" />
</g>


</svg>
