<?xml version="1.0" encoding="UTF-8" standalone="no"?>

<svg xmlns="http://www.w3.org/2000/svg" xmlns:xlink="http://www.w3.org/1999/xlink" width="530" height="300" viewBox="0 0 530 300">

<defs>
	<clipPath id="clipPath_E1">
		<rect x="0" y="0" width="530" height="300" />
	</clipPath>
</defs>

<g style="clip-path: url(#clipPath_E1);" stroke-linecap="round">
	<rect x="0" y="0" width="530" height="300" fill="#ffffff" fill-opacity="1"/>
	<rect x="0" y="0" width="1060" height="600" fill="#ffffff" fill-opacity="1" stroke="none" />
	<path fill="none" stroke="#000000" stroke-opacity="1" stroke-width="3" d="M 135.5 272.5 L 159.5 32.5 " />
	<circle cx="135" cy="272" r="2" stroke="none" fill="#000000" fill-opacity="1" />
	<circle cx="159" cy="32" r="2" stroke="none" fill="#000000" fill-opacity="1" />
	<path fill="none" stroke="#000000" stroke-opacity="1" stroke-width="3" d="M 399.5 224.5 L 351.5 32.5 " />
	<circle cx="399" cy="224" r="2" stroke="none" fill="#000000" fill-opacity="1" />
	<circle cx="351" cy="32" r="2" stroke="none" fill="#000000" fill-opacity="1" />
	<path fill="none" stroke="#000000" stroke-opacity="1" stroke-width="3" d="M 221.5 27.5 L 289.5 272.5 " />
	<circle cx="221" cy="27" r="2" stroke="none" fill="#000000" fill-opacity="1" />
	<circle cx="289" cy="272" r="2" stroke="none" fill="#000000" fill-opacity="1" />
	<path fill="none" stroke="#000000" stroke-opacity="1" stroke-width="3" d="M 293.5 32.5 L 317.5 282.5 " />
	<circle cx="293" cy="32" r="2" stroke="none" fill="#000000" fill-opacity="1" />
	<circle cx="317" cy="282" r="2" stroke="none" fill="#000000" fill-opacity="1" />
	<path fill="none" stroke="#000000" stroke-opacity="1" stroke-width="3" d="M 53.5 56.5 L 49.5 272.5 " />
	<circle cx="53" cy="56" r="2" stroke="none" fill="#000000" fill-opacity="1" />
	<circle cx="49" cy="272" r="2" stroke="none" fill="#000000" fill-opacity="1" />
	<path fill="none" stroke="#000000" stroke-opacity="1" stroke-width="3" d="M 485.5 56.5 L 433.5 272.5 " />
	<circle cx="485" cy="56" r="2" stroke="none" fill="#000000" fill-opacity="1" />
	<circle cx="433" cy="272" r="2" stroke="none" fill="#000000" fill-opacity="1" />
	<circle cx="135" cy="272" r="6" stroke="none" fill="#20303a" fill-opacity="1" />
	<circle cx="351" cy="32" r="6" stroke="none" fill="#000000" fill-opacity="1" />
	<circle cx="399" cy="224" r="6" stroke="none" fill="#20303a" fill-opacity="1" />
	<circle cx="159" cy="32" r="6" stroke="none" fill="#20303a" fill-opacity="1" />
	<circle cx="221" cy="27" r="6" stroke="none" fill="#20303a" fill-opacity="1" />
	<circle cx="289" cy="272" r="6" stroke="none" fill="#20303a" fill-opacity="1" />
	<circle cx="53" cy="56" r="6" stroke="none" fill="#20303a" fill-opacity="1" />
	<circle cx="49" cy="272" r="6" stroke="none" fill="#20303a" fill-opacity="1" />
	<circle cx="293" cy="32" r="6" stroke="none" fill="#20303a" fill-opacity="1" />
	<circle cx="317" cy="282" r="6" stroke="none" fill="#20303a" fill-opacity="1" />
	<circle cx="485" cy="56" r="6" stroke="none" fill="#20303a" fill-opacity="1" />
	<circle cx="433" cy="272" r="6" stroke="none" fill="#20303a" fill-opacity="1" />
</g>


</svg>
