<?xml version="1.0" encoding="UTF-8" standalone="no"?>

<svg xmlns="http://www.w3.org/2000/svg" xmlns:xlink="http://www.w3.org/1999/xlink" width="500" height="280" viewBox="0 0 500 280">

<defs>
	<clipPath id="clipPath_E1">
		<rect x="0" y="0" width="500" height="280" />
	</clipPath>
</defs>

<g style="clip-path: url(#clipPath_E1);" stroke-linecap="round">
	<rect x="0" y="0" width="500" height="280" fill="#ffffff" fill-opacity="1"/>
	<rect x="0" y="0" width="1000" height="560" fill="#ffffff" fill-opacity="1" stroke="none" />
	<path fill="#ae73ff" fill-opacity="0.6" stroke="none" d="M 288 105 L 388 105 L 400 30 L 463 105 L 413 180 L 363 155 L 313 230 L 288 105 " />
	<path fill="none" stroke="#000000" stroke-opacity="1" stroke-width="1" d="M 288 105 L 388 105 L 400 30 L 463 105 L 413 180 L 363 155 L 313 230 L 288 105 " />
	<path fill="none" stroke="#ff0000" stroke-opacity="1" stroke-width="4" d="M 313 230 L 463 105 " />
	<circle cx="313" cy="230" r="2" stroke="none" fill="#ff0000" fill-opacity="1" />
	<circle cx="463" cy="105" r="2" stroke="none" fill="#ff0000" fill-opacity="1" />
	<circle cx="288" cy="105" r="7" stroke="none" fill="#000000" fill-opacity="1" />
	<circle cx="388" cy="105" r="7" stroke="none" fill="#000000" fill-opacity="1" />
	<circle cx="400" cy="30" r="7" stroke="none" fill="#000000" fill-opacity="1" />
	<circle cx="463" cy="105" r="7" stroke="none" fill="#000000" fill-opacity="1" />
	<circle cx="413" cy="180" r="7" stroke="none" fill="#000000" fill-opacity="1" />
	<circle cx="363" cy="155" r="7" stroke="none" fill="#000000" fill-opacity="1" />
	<circle cx="313" cy="230" r="7" stroke="none" fill="#000000" fill-opacity="1" />
	<path fill="#ae73ff" fill-opacity="0.6" stroke="none" d="M 38 105 L 138 105 L 150 30 L 213 105 L 163 180 L 113 155 L 63 230 L 38 105 " />
	<path fill="none" stroke="#000000" stroke-opacity="1" stroke-width="1" d="M 38 105 L 138 105 L 150 30 L 213 105 L 163 180 L 113 155 L 63 230 L 38 105 " />
	<path fill="none" stroke="#00ff00" stroke-opacity="1" stroke-width="4" d="M 38 105 L 113 155 " />
	<circle cx="38" cy="105" r="2" stroke="none" fill="#00ff00" fill-opacity="1" />
	<circle cx="113" cy="155" r="2" stroke="none" fill="#00ff00" fill-opacity="1" />
	<circle cx="38" cy="105" r="7" stroke="none" fill="#000000" fill-opacity="1" />
	<circle cx="138" cy="105" r="7" stroke="none" fill="#000000" fill-opacity="1" />
	<circle cx="150" cy="30" r="7" stroke="none" fill="#000000" fill-opacity="1" />
	<circle cx="213" cy="105" r="7" stroke="none" fill="#000000" fill-opacity="1" />
	<circle cx="163" cy="180" r="7" stroke="none" fill="#000000" fill-opacity="1" />
	<circle cx="113" cy="155" r="7" stroke="none" fill="#000000" fill-opacity="1" />
	<circle cx="63" cy="230" r="7" stroke="none" fill="#000000" fill-opacity="1" />
</g>


</svg>
