<?xml version="1.0" encoding="UTF-8" standalone="no"?>

<svg xmlns="http://www.w3.org/2000/svg" xmlns:xlink="http://www.w3.org/1999/xlink" width="450" height="280" viewBox="0 0 450 280">

<defs>
	<clipPath id="clipPath_E1">
		<rect x="0" y="0" width="450" height="280" />
	</clipPath>
</defs>

<g style="clip-path: url(#clipPath_E1);" stroke-linecap="round">
	<rect x="0" y="0" width="450" height="280" fill="#ffffff" fill-opacity="1"/>
	<rect x="0" y="0" width="900" height="560" fill="#ffffff" fill-opacity="1" stroke="none" />
	<path fill="#0000ff" fill-opacity="0.4667" stroke="none" d="M 45 18 L 75 228 L 135 228 L 165 18 L 195 228 L 255 228 L 285 18 L 315 228 L 375 228 L 405 18 L 435 258 L 15 258 L 45 18 " />
	<path fill="none" stroke="#000000" stroke-opacity="1" stroke-width="1" d="M 45 18 L 75 228 L 135 228 L 165 18 L 195 228 L 255 228 L 285 18 L 315 228 L 375 228 L 405 18 L 435 258 L 15 258 L 45 18 " />
</g>


</svg>
