<?xml version="1.0" encoding="UTF-8" standalone="no"?>

<svg xmlns="http://www.w3.org/2000/svg" xmlns:xlink="http://www.w3.org/1999/xlink" width="500" height="280" viewBox="0 0 500 280">

<defs>
	<clipPath id="clipPath_E1">
		<rect x="0" y="0" width="500" height="280" />
	</clipPath>
</defs>

<g style="clip-path: url(#clipPath_E1);" stroke-linecap="round">
	<rect x="0" y="0" width="500" height="280" fill="#ffffff" fill-opacity="1"/>
	<rect x="0" y="0" width="1000" height="560" fill="#ffffff" fill-opacity="1" stroke="none" />
	<path fill="#ae73ff" fill-opacity="0.6" stroke="none" d="M 275 108 L 395 108 L 410 18 L 485 108 L 425 198 L 365 168 L 305 258 L 275 108 " />
	<path fill="none" stroke="#000000" stroke-opacity="1" stroke-width="1" d="M 275 108 L 395 108 L 410 18 L 485 108 L 425 198 L 365 168 L 305 258 L 275 108 " />
	<path fill="none" stroke="#00ff00" stroke-opacity="1" stroke-width="4" d="M 275 108 L 365 168 " />
	<circle cx="275" cy="108" r="2" stroke="none" fill="#00ff00" fill-opacity="1" />
	<circle cx="365" cy="168" r="2" stroke="none" fill="#00ff00" fill-opacity="1" />
	<path fill="none" stroke="#00ff00" stroke-opacity="1" stroke-width="4" d="M 395 108 L 365 168 " />
	<circle cx="395" cy="108" r="2" stroke="none" fill="#00ff00" fill-opacity="1" />
	<circle cx="365" cy="168" r="2" stroke="none" fill="#00ff00" fill-opacity="1" />
	<path fill="none" stroke="#00ff00" stroke-opacity="1" stroke-width="4" d="M 395 108 L 425 198 " />
	<circle cx="395" cy="108" r="2" stroke="none" fill="#00ff00" fill-opacity="1" />
	<circle cx="425" cy="198" r="2" stroke="none" fill="#00ff00" fill-opacity="1" />
	<path fill="none" stroke="#00ff00" stroke-opacity="1" stroke-width="4" d="M 395 108 L 485 108 " />
	<circle cx="395" cy="108" r="2" stroke="none" fill="#00ff00" fill-opacity="1" />
	<circle cx="485" cy="108" r="2" stroke="none" fill="#00ff00" fill-opacity="1" />
	<circle cx="275" cy="108" r="7" stroke="none" fill="#000000" fill-opacity="1" />
	<circle cx="395" cy="108" r="7" stroke="none" fill="#000000" fill-opacity="1" />
	<circle cx="410" cy="18" r="7" stroke="none" fill="#000000" fill-opacity="1" />
	<circle cx="485" cy="108" r="7" stroke="none" fill="#000000" fill-opacity="1" />
	<circle cx="425" cy="198" r="7" stroke="none" fill="#000000" fill-opacity="1" />
	<circle cx="365" cy="168" r="7" stroke="none" fill="#000000" fill-opacity="1" />
	<circle cx="305" cy="258" r="7" stroke="none" fill="#000000" fill-opacity="1" />
	<path fill="#ae73ff" fill-opacity="0.6" stroke="none" d="M 20 108 L 140 108 L 155 18 L 230 108 L 170 198 L 110 168 L 50 258 L 20 108 " />
	<path fill="none" stroke="#000000" stroke-opacity="1" stroke-width="1" d="M 20 108 L 140 108 L 155 18 L 230 108 L 170 198 L 110 168 L 50 258 L 20 108 " />
	<path fill="none" stroke="#00ff00" stroke-opacity="1" stroke-width="4" d="M 20 108 L 110 168 " />
	<circle cx="20" cy="108" r="2" stroke="none" fill="#00ff00" fill-opacity="1" />
	<circle cx="110" cy="168" r="2" stroke="none" fill="#00ff00" fill-opacity="1" />
	<path fill="none" stroke="#00ff00" stroke-opacity="1" stroke-width="4" d="M 230 108 L 110 168 " />
	<circle cx="230" cy="108" r="2" stroke="none" fill="#00ff00" fill-opacity="1" />
	<circle cx="110" cy="168" r="2" stroke="none" fill="#00ff00" fill-opacity="1" />
	<path fill="none" stroke="#00ff00" stroke-opacity="1" stroke-width="4" d="M 140 108 L 110 168 " />
	<circle cx="140" cy="108" r="2" stroke="none" fill="#00ff00" fill-opacity="1" />
	<circle cx="110" cy="168" r="2" stroke="none" fill="#00ff00" fill-opacity="1" />
	<path fill="none" stroke="#00ff00" stroke-opacity="1" stroke-width="4" d="M 140 108 L 230 108 " />
	<circle cx="140" cy="108" r="2" stroke="none" fill="#00ff00" fill-opacity="1" />
	<circle cx="230" cy="108" r="2" stroke="none" fill="#00ff00" fill-opacity="1" />
	<circle cx="20" cy="108" r="7" stroke="none" fill="#000000" fill-opacity="1" />
	<circle cx="140" cy="108" r="7" stroke="none" fill="#000000" fill-opacity="1" />
	<circle cx="155" cy="18" r="7" stroke="none" fill="#000000" fill-opacity="1" />
	<circle cx="230" cy="108" r="7" stroke="none" fill="#000000" fill-opacity="1" />
	<circle cx="170" cy="198" r="7" stroke="none" fill="#000000" fill-opacity="1" />
	<circle cx="110" cy="168" r="7" stroke="none" fill="#000000" fill-opacity="1" />
	<circle cx="50" cy="258" r="7" stroke="none" fill="#000000" fill-opacity="1" />
</g>


</svg>
