<?xml version="1.0" encoding="UTF-8" standalone="no"?>

<svg xmlns="http://www.w3.org/2000/svg" xmlns:xlink="http://www.w3.org/1999/xlink" width="350" height="160" viewBox="0 0 350 160">

<defs>
	<clipPath id="clipPath_E1">
		<rect x="0" y="0" width="350" height="160" />
	</clipPath>
</defs>

<g style="clip-path: url(#clipPath_E1);" stroke-linecap="round">
	<rect x="0" y="0" width="350" height="160" fill="#ffffff" fill-opacity="1"/>
	<rect x="0" y="0" width="700" height="320" fill="#ffffff" fill-opacity="1" stroke="none" />
	<circle cx="208" cy="30" r="7" stroke="none" fill="#000000" fill-opacity="1" />
	<text fill="#000000" fill-opacity="1" x="208" y="49" style="font-size:20px; font-family:descartesJS_serif,Times,'Times New Roman',serif; ">   u </text>
	<path fill="none" stroke="#000000" stroke-opacity="1" stroke-width="4" d="M 268 120 L 328 30 " />
	<circle cx="268" cy="120" r="2" stroke="none" fill="#000000" fill-opacity="1" />
	<circle cx="328" cy="30" r="2" stroke="none" fill="#000000" fill-opacity="1" />
	<path fill="none" stroke="#000000" stroke-opacity="1" stroke-width="4" d="M 268 120 L 208 30 " />
	<circle cx="268" cy="120" r="2" stroke="none" fill="#000000" fill-opacity="1" />
	<circle cx="208" cy="30" r="2" stroke="none" fill="#000000" fill-opacity="1" />
	<circle cx="268" cy="120" r="7" stroke="none" fill="#000000" fill-opacity="1" />
	<text fill="#000000" fill-opacity="1" x="268" y="139" style="font-size:20px; font-family:descartesJS_serif,Times,'Times New Roman',serif; "> v </text>
	<circle cx="328" cy="30" r="7" stroke="none" fill="#000000" fill-opacity="1" />
	<text fill="#000000" fill-opacity="1" x="328" y="49" style="font-size:20px; font-family:descartesJS_serif,Times,'Times New Roman',serif; ">w </text>
	<path fill="none" stroke="#000000" stroke-opacity="1" stroke-width="3" d="M 88.5 30.5 L 148.5 120.5 " />
	<circle cx="88" cy="30" r="2" stroke="none" fill="#000000" fill-opacity="1" />
	<circle cx="148" cy="120" r="2" stroke="none" fill="#000000" fill-opacity="1" />
	<path fill="none" stroke="#000000" stroke-opacity="1" stroke-width="3" d="M 88.5 30.5 L 28.5 120.5 " />
	<circle cx="88" cy="30" r="2" stroke="none" fill="#000000" fill-opacity="1" />
	<circle cx="28" cy="120" r="2" stroke="none" fill="#000000" fill-opacity="1" />
	<circle cx="88" cy="30" r="7" stroke="none" fill="#000000" fill-opacity="1" />
	<text fill="#000000" fill-opacity="1" x="88" y="49" style="font-size:20px; font-family:descartesJS_serif,Times,'Times New Roman',serif; ">   v </text>
	<circle cx="148" cy="120" r="7" stroke="none" fill="#000000" fill-opacity="1" />
	<text fill="#000000" fill-opacity="1" x="148" y="139" style="font-size:20px; font-family:descartesJS_serif,Times,'Times New Roman',serif; ">w </text>
	<circle cx="28" cy="120" r="7" stroke="none" fill="#000000" fill-opacity="1" />
	<text fill="#000000" fill-opacity="1" x="28" y="139" style="font-size:20px; font-family:descartesJS_serif,Times,'Times New Roman',serif; ">u </text>
</g>


</svg>
