<svg version="1.1" xmlns="http://www.w3.org/2000/svg" xmlns:xlink="http://www.w3.org/1999/xlink" width="1106" height="680"><defs><clipPath id="pFMkbUXsJllI"><path fill="none" stroke="none" d=" M 0 0 L 1106 0 L 1106 680 L 0 680 L 0 0 Z"/></clipPath></defs><g transform="scale(1,1)" clip-path="url(#pFMkbUXsJllI)"><g><rect fill="rgb(255,255,255)" stroke="none" x="0" y="0" width="1106" height="680" fill-opacity="1"/><path fill="none" stroke="rgb(21,101,192)" paint-order="fill stroke markers" d=" M 352.3435999999993 79.80239999999975 L 252.78479999999934 239.38929999999976" stroke-opacity="0.8" stroke-linecap="round" stroke-linejoin="round" stroke-miterlimit="10" stroke-width="2.5"/><path fill="none" stroke="rgb(21,101,192)" paint-order="fill stroke markers" d=" M 252.78479999999934 239.38929999999976 L 339.1666999999993 460.46839999999975" stroke-opacity="0.8" stroke-linecap="round" stroke-linejoin="round" stroke-miterlimit="10" stroke-width="2.5"/><path fill="none" stroke="rgb(21,101,192)" paint-order="fill stroke markers" d=" M 339.1666999999993 460.46839999999975 L 536.8201999999994 478.03759999999977" stroke-opacity="0.8" stroke-linecap="round" stroke-linejoin="round" stroke-miterlimit="10" stroke-width="2.5"/><path fill="none" stroke="rgb(21,101,192)" paint-order="fill stroke markers" d=" M 536.8201999999994 478.03759999999977 L 620.2738999999995 256.95849999999973" stroke-opacity="0.8" stroke-linecap="round" stroke-linejoin="round" stroke-miterlimit="10" stroke-width="2.5"/><path fill="none" stroke="rgb(21,101,192)" paint-order="fill stroke markers" d=" M 620.2738999999995 256.95849999999973 L 533.8919999999994 78.33829999999972" stroke-opacity="0.8" stroke-linecap="round" stroke-linejoin="round" stroke-miterlimit="10" stroke-width="2.5"/><path fill="none" stroke="rgb(21,101,192)" paint-order="fill stroke markers" d=" M 533.8919999999994 78.33829999999972 L 352.3435999999993 79.80239999999975" stroke-opacity="0.8" stroke-linecap="round" stroke-linejoin="round" stroke-miterlimit="10" stroke-width="2.5"/><path fill="none" stroke="rgb(21,101,192)" paint-order="fill stroke markers" d=" M 620.2738999999995 256.95849999999973 L 803.2863999999995 261.35079999999977" stroke-opacity="0.8" stroke-linecap="round" stroke-linejoin="round" stroke-miterlimit="10" stroke-width="2.5"/><path fill="none" stroke="rgb(21,101,192)" paint-order="fill stroke markers" d=" M 803.2863999999995 261.35079999999977 L 733.0095999999995 391.65569999999974" stroke-opacity="0.8" stroke-linecap="round" stroke-linejoin="round" stroke-miterlimit="10" stroke-width="2.5"/><path fill="none" stroke="rgb(21,101,192)" paint-order="fill stroke markers" d=" M 733.0095999999995 391.65569999999974 L 536.8201999999994 478.03759999999977" stroke-opacity="0.8" stroke-linecap="round" stroke-linejoin="round" stroke-miterlimit="10" stroke-width="2.5"/><path fill="none" stroke="rgb(21,101,192)" paint-order="fill stroke markers" d=" M 533.8919999999994 78.33829999999972 L 722.7608999999995 92.97929999999974" stroke-opacity="0.8" stroke-linecap="round" stroke-linejoin="round" stroke-miterlimit="10" stroke-width="2.5"/><path fill="none" stroke="rgb(21,101,192)" paint-order="fill stroke markers" d=" M 722.7608999999995 92.97929999999974 L 803.2863999999995 261.35079999999977" stroke-opacity="0.8" stroke-linecap="round" stroke-linejoin="round" stroke-miterlimit="10" stroke-width="2.5"/><path fill="rgb(21,101,192)" stroke="none" paint-order="stroke fill markers" d=" M 357.3435999999993 79.80239999999975 C 357.3435999999993 82.56382374915371 355.10502374915325 84.80239999999975 352.3435999999993 84.80239999999975 C 349.58217625084535 84.80239999999975 347.3435999999993 82.56382374915371 347.3435999999993 79.80239999999975 C 347.3435999999993 77.04097625084579 349.58217625084535 74.80239999999975 352.3435999999993 74.80239999999975 C 355.10502374915325 74.80239999999975 357.3435999999993 77.04097625084579 357.3435999999993 79.80239999999975 Z" fill-opacity="1"/><path fill="none" stroke="rgb(0,0,0)" paint-order="fill stroke markers" d=" M 357.3435999999993 79.80239999999975 C 357.3435999999993 82.56382374915371 355.10502374915325 84.80239999999975 352.3435999999993 84.80239999999975 C 349.58217625084535 84.80239999999975 347.3435999999993 82.56382374915371 347.3435999999993 79.80239999999975 C 347.3435999999993 77.04097625084579 349.58217625084535 74.80239999999975 352.3435999999993 74.80239999999975 C 355.10502374915325 74.80239999999975 357.3435999999993 77.04097625084579 357.3435999999993 79.80239999999975 Z" stroke-opacity="1" stroke-linecap="round" stroke-linejoin="round" stroke-miterlimit="10"/><path fill="rgb(21,101,192)" stroke="none" paint-order="stroke fill markers" d=" M 257.78479999999934 239.38929999999976 C 257.78479999999934 242.15072374915374 255.5462237491533 244.38929999999976 252.78479999999934 244.38929999999976 C 250.02337625084536 244.38929999999976 247.78479999999934 242.15072374915374 247.78479999999934 239.38929999999976 C 247.78479999999934 236.6278762508458 250.02337625084536 234.38929999999976 252.78479999999934 234.38929999999976 C 255.5462237491533 234.38929999999976 257.78479999999934 236.6278762508458 257.78479999999934 239.38929999999976 Z" fill-opacity="1"/><path fill="none" stroke="rgb(0,0,0)" paint-order="fill stroke markers" d=" M 257.78479999999934 239.38929999999976 C 257.78479999999934 242.15072374915374 255.5462237491533 244.38929999999976 252.78479999999934 244.38929999999976 C 250.02337625084536 244.38929999999976 247.78479999999934 242.15072374915374 247.78479999999934 239.38929999999976 C 247.78479999999934 236.6278762508458 250.02337625084536 234.38929999999976 252.78479999999934 234.38929999999976 C 255.5462237491533 234.38929999999976 257.78479999999934 236.6278762508458 257.78479999999934 239.38929999999976 Z" stroke-opacity="1" stroke-linecap="round" stroke-linejoin="round" stroke-miterlimit="10"/><path fill="rgb(21,101,192)" stroke="none" paint-order="stroke fill markers" d=" M 344.1666999999993 460.46839999999975 C 344.1666999999993 463.2298237491537 341.92812374915326 465.46839999999975 339.1666999999993 465.46839999999975 C 336.40527625084536 465.46839999999975 334.1666999999993 463.2298237491537 334.1666999999993 460.46839999999975 C 334.1666999999993 457.7069762508458 336.40527625084536 455.46839999999975 339.1666999999993 455.46839999999975 C 341.92812374915326 455.46839999999975 344.1666999999993 457.7069762508458 344.1666999999993 460.46839999999975 Z" fill-opacity="1"/><path fill="none" stroke="rgb(0,0,0)" paint-order="fill stroke markers" d=" M 344.1666999999993 460.46839999999975 C 344.1666999999993 463.2298237491537 341.92812374915326 465.46839999999975 339.1666999999993 465.46839999999975 C 336.40527625084536 465.46839999999975 334.1666999999993 463.2298237491537 334.1666999999993 460.46839999999975 C 334.1666999999993 457.7069762508458 336.40527625084536 455.46839999999975 339.1666999999993 455.46839999999975 C 341.92812374915326 455.46839999999975 344.1666999999993 457.7069762508458 344.1666999999993 460.46839999999975 Z" stroke-opacity="1" stroke-linecap="round" stroke-linejoin="round" stroke-miterlimit="10"/><path fill="rgb(21,101,192)" stroke="none" paint-order="stroke fill markers" d=" M 541.8201999999994 478.03759999999977 C 541.8201999999994 480.7990237491537 539.5816237491534 483.03759999999977 536.8201999999994 483.03759999999977 C 534.0587762508454 483.03759999999977 531.8201999999994 480.7990237491537 531.8201999999994 478.03759999999977 C 531.8201999999994 475.2761762508458 534.0587762508454 473.03759999999977 536.8201999999994 473.03759999999977 C 539.5816237491534 473.03759999999977 541.8201999999994 475.2761762508458 541.8201999999994 478.03759999999977 Z" fill-opacity="1"/><path fill="none" stroke="rgb(0,0,0)" paint-order="fill stroke markers" d=" M 541.8201999999994 478.03759999999977 C 541.8201999999994 480.7990237491537 539.5816237491534 483.03759999999977 536.8201999999994 483.03759999999977 C 534.0587762508454 483.03759999999977 531.8201999999994 480.7990237491537 531.8201999999994 478.03759999999977 C 531.8201999999994 475.2761762508458 534.0587762508454 473.03759999999977 536.8201999999994 473.03759999999977 C 539.5816237491534 473.03759999999977 541.8201999999994 475.2761762508458 541.8201999999994 478.03759999999977 Z" stroke-opacity="1" stroke-linecap="round" stroke-linejoin="round" stroke-miterlimit="10"/><path fill="rgb(21,101,192)" stroke="none" paint-order="stroke fill markers" d=" M 625.2738999999995 256.95849999999973 C 625.2738999999995 259.7199237491537 623.0353237491535 261.95849999999973 620.2738999999995 261.95849999999973 C 617.5124762508455 261.95849999999973 615.2738999999995 259.7199237491537 615.2738999999995 256.95849999999973 C 615.2738999999995 254.19707625084575 617.5124762508455 251.95849999999973 620.2738999999995 251.95849999999973 C 623.0353237491535 251.95849999999973 625.2738999999995 254.19707625084575 625.2738999999995 256.95849999999973 Z" fill-opacity="1"/><path fill="none" stroke="rgb(0,0,0)" paint-order="fill stroke markers" d=" M 625.2738999999995 256.95849999999973 C 625.2738999999995 259.7199237491537 623.0353237491535 261.95849999999973 620.2738999999995 261.95849999999973 C 617.5124762508455 261.95849999999973 615.2738999999995 259.7199237491537 615.2738999999995 256.95849999999973 C 615.2738999999995 254.19707625084575 617.5124762508455 251.95849999999973 620.2738999999995 251.95849999999973 C 623.0353237491535 251.95849999999973 625.2738999999995 254.19707625084575 625.2738999999995 256.95849999999973 Z" stroke-opacity="1" stroke-linecap="round" stroke-linejoin="round" stroke-miterlimit="10"/><path fill="rgb(21,101,192)" stroke="none" paint-order="stroke fill markers" d=" M 538.8919999999994 78.33829999999972 C 538.8919999999994 81.09972374915368 536.6534237491534 83.33829999999972 533.8919999999994 83.33829999999972 C 531.1305762508454 83.33829999999972 528.8919999999994 81.09972374915368 528.8919999999994 78.33829999999972 C 528.8919999999994 75.57687625084576 531.1305762508454 73.33829999999972 533.8919999999994 73.33829999999972 C 536.6534237491534 73.33829999999972 538.8919999999994 75.57687625084576 538.8919999999994 78.33829999999972 Z" fill-opacity="1"/><path fill="none" stroke="rgb(0,0,0)" paint-order="fill stroke markers" d=" M 538.8919999999994 78.33829999999972 C 538.8919999999994 81.09972374915368 536.6534237491534 83.33829999999972 533.8919999999994 83.33829999999972 C 531.1305762508454 83.33829999999972 528.8919999999994 81.09972374915368 528.8919999999994 78.33829999999972 C 528.8919999999994 75.57687625084576 531.1305762508454 73.33829999999972 533.8919999999994 73.33829999999972 C 536.6534237491534 73.33829999999972 538.8919999999994 75.57687625084576 538.8919999999994 78.33829999999972 Z" stroke-opacity="1" stroke-linecap="round" stroke-linejoin="round" stroke-miterlimit="10"/><path fill="rgb(21,101,192)" stroke="none" paint-order="stroke fill markers" d=" M 808.2863999999995 261.35079999999977 C 808.2863999999995 264.1122237491537 806.0478237491535 266.35079999999977 803.2863999999995 266.35079999999977 C 800.5249762508455 266.35079999999977 798.2863999999995 264.1122237491537 798.2863999999995 261.35079999999977 C 798.2863999999995 258.5893762508458 800.5249762508455 256.35079999999977 803.2863999999995 256.35079999999977 C 806.0478237491535 256.35079999999977 808.2863999999995 258.5893762508458 808.2863999999995 261.35079999999977 Z" fill-opacity="1"/><path fill="none" stroke="rgb(0,0,0)" paint-order="fill stroke markers" d=" M 808.2863999999995 261.35079999999977 C 808.2863999999995 264.1122237491537 806.0478237491535 266.35079999999977 803.2863999999995 266.35079999999977 C 800.5249762508455 266.35079999999977 798.2863999999995 264.1122237491537 798.2863999999995 261.35079999999977 C 798.2863999999995 258.5893762508458 800.5249762508455 256.35079999999977 803.2863999999995 256.35079999999977 C 806.0478237491535 256.35079999999977 808.2863999999995 258.5893762508458 808.2863999999995 261.35079999999977 Z" stroke-opacity="1" stroke-linecap="round" stroke-linejoin="round" stroke-miterlimit="10"/><path fill="rgb(21,101,192)" stroke="none" paint-order="stroke fill markers" d=" M 738.0095999999995 391.65569999999974 C 738.0095999999995 394.4171237491537 735.7710237491535 396.65569999999974 733.0095999999995 396.65569999999974 C 730.2481762508455 396.65569999999974 728.0095999999995 394.4171237491537 728.0095999999995 391.65569999999974 C 728.0095999999995 388.8942762508458 730.2481762508455 386.65569999999974 733.0095999999995 386.65569999999974 C 735.7710237491535 386.65569999999974 738.0095999999995 388.8942762508458 738.0095999999995 391.65569999999974 Z" fill-opacity="1"/><path fill="none" stroke="rgb(0,0,0)" paint-order="fill stroke markers" d=" M 738.0095999999995 391.65569999999974 C 738.0095999999995 394.4171237491537 735.7710237491535 396.65569999999974 733.0095999999995 396.65569999999974 C 730.2481762508455 396.65569999999974 728.0095999999995 394.4171237491537 728.0095999999995 391.65569999999974 C 728.0095999999995 388.8942762508458 730.2481762508455 386.65569999999974 733.0095999999995 386.65569999999974 C 735.7710237491535 386.65569999999974 738.0095999999995 388.8942762508458 738.0095999999995 391.65569999999974 Z" stroke-opacity="1" stroke-linecap="round" stroke-linejoin="round" stroke-miterlimit="10"/><path fill="rgb(21,101,192)" stroke="none" paint-order="stroke fill markers" d=" M 727.7608999999995 92.97929999999974 C 727.7608999999995 95.7407237491537 725.5223237491535 97.97929999999974 722.7608999999995 97.97929999999974 C 719.9994762508455 97.97929999999974 717.7608999999995 95.7407237491537 717.7608999999995 92.97929999999974 C 717.7608999999995 90.21787625084578 719.9994762508455 87.97929999999974 722.7608999999995 87.97929999999974 C 725.5223237491535 87.97929999999974 727.7608999999995 90.21787625084578 727.7608999999995 92.97929999999974 Z" fill-opacity="1"/><path fill="none" stroke="rgb(0,0,0)" paint-order="fill stroke markers" d=" M 727.7608999999995 92.97929999999974 C 727.7608999999995 95.7407237491537 725.5223237491535 97.97929999999974 722.7608999999995 97.97929999999974 C 719.9994762508455 97.97929999999974 717.7608999999995 95.7407237491537 717.7608999999995 92.97929999999974 C 717.7608999999995 90.21787625084578 719.9994762508455 87.97929999999974 722.7608999999995 87.97929999999974 C 725.5223237491535 87.97929999999974 727.7608999999995 90.21787625084578 727.7608999999995 92.97929999999974 Z" stroke-opacity="1" stroke-linecap="round" stroke-linejoin="round" stroke-miterlimit="10"/></g></g></svg>