<svg version="1.1" xmlns="http://www.w3.org/2000/svg" xmlns:xlink="http://www.w3.org/1999/xlink" width="1106" height="680"><defs><clipPath id="CUFhIMVDQrNz"><path fill="none" stroke="none" d=" M 0 0 L 1106 0 L 1106 680 L 0 680 L 0 0 Z"/></clipPath></defs><g transform="scale(1,1)" clip-path="url(#CUFhIMVDQrNz)"><g><rect fill="rgb(255,255,255)" stroke="none" x="0" y="0" width="1106" height="680" fill-opacity="1"/><path fill="none" stroke="rgb(0,0,0)" paint-order="fill stroke markers" d=" M 339.1666999999993 261.35079999999977 L 434.33319999999935 511.71189999999973" stroke-opacity="0.8" stroke-linecap="round" stroke-linejoin="round" stroke-miterlimit="10" stroke-width="2.5"/><path fill="none" stroke="rgb(0,0,0)" paint-order="fill stroke markers" d=" M 561.7098999999994 557.0989999999997 L 434.33319999999935 511.71189999999973" stroke-opacity="0.8" stroke-linecap="round" stroke-linejoin="round" stroke-miterlimit="10" stroke-width="2.5"/><path fill="none" stroke="rgb(0,0,0)" paint-order="fill stroke markers" d=" M 339.1666999999993 261.35079999999977 L 653 133" stroke-opacity="0.8" stroke-linecap="round" stroke-linejoin="round" stroke-miterlimit="10" stroke-width="2.5"/><path fill="none" stroke="rgb(0,0,0)" paint-order="fill stroke markers" d=" M 653 133 L 806.2145999999996 328.69939999999974" stroke-opacity="0.8" stroke-linecap="round" stroke-linejoin="round" stroke-miterlimit="10" stroke-width="2.5"/><path fill="none" stroke="rgb(0,0,0)" paint-order="fill stroke markers" d=" M 806.2145999999996 328.69939999999974 L 819.3914999999995 470.71709999999973" stroke-opacity="0.8" stroke-linecap="round" stroke-linejoin="round" stroke-miterlimit="10" stroke-width="2.5"/><path fill="none" stroke="rgb(0,0,0)" paint-order="fill stroke markers" d=" M 819.3914999999995 470.71709999999973 L 561.7098999999994 557.0989999999997" stroke-opacity="0.8" stroke-linecap="round" stroke-linejoin="round" stroke-miterlimit="10" stroke-width="2.5"/><path fill="none" stroke="rgb(0,0,0)" paint-order="fill stroke markers" d=" M 473.8638999999994 308.20199999999977 L 627 499" stroke-opacity="0.8" stroke-linecap="round" stroke-linejoin="round" stroke-miterlimit="10" stroke-width="2.5"/><path fill="none" stroke="rgb(0,0,0)" paint-order="fill stroke markers" d=" M 627 499 L 666 341" stroke-opacity="0.8" stroke-linecap="round" stroke-linejoin="round" stroke-miterlimit="10" stroke-width="2.5"/><path fill="none" stroke="rgb(0,0,0)" paint-order="fill stroke markers" d=" M 666 341 L 473.8638999999994 308.20199999999977" stroke-opacity="0.8" stroke-linecap="round" stroke-linejoin="round" stroke-miterlimit="10" stroke-width="2.5"/><path fill="none" stroke="rgb(0,0,0)" paint-order="fill stroke markers" d=" M 352.3435999999993 79.80239999999975 L 252.78479999999934 239.38929999999976" stroke-opacity="0.8" stroke-linecap="round" stroke-linejoin="round" stroke-miterlimit="10" stroke-width="2.5"/><path fill="none" stroke="rgb(0,0,0)" paint-order="fill stroke markers" d=" M 252.78479999999934 239.38929999999976 L 339.1666999999993 460.46839999999975" stroke-opacity="0.8" stroke-linecap="round" stroke-linejoin="round" stroke-miterlimit="10" stroke-width="2.5"/><path fill="none" stroke="rgb(0,0,0)" paint-order="fill stroke markers" d=" M 339.1666999999993 460.46839999999975 L 536.8201999999994 478.03759999999977" stroke-opacity="0.8" stroke-linecap="round" stroke-linejoin="round" stroke-miterlimit="10" stroke-width="2.5"/><path fill="none" stroke="rgb(0,0,0)" paint-order="fill stroke markers" d=" M 536.8201999999994 478.03759999999977 L 620.2738999999995 256.95849999999973" stroke-opacity="0.8" stroke-linecap="round" stroke-linejoin="round" stroke-miterlimit="10" stroke-width="2.5"/><path fill="none" stroke="rgb(0,0,0)" paint-order="fill stroke markers" d=" M 620.2738999999995 256.95849999999973 L 533.8919999999994 78.33829999999972" stroke-opacity="0.8" stroke-linecap="round" stroke-linejoin="round" stroke-miterlimit="10" stroke-width="2.5"/><path fill="none" stroke="rgb(0,0,0)" paint-order="fill stroke markers" d=" M 533.8919999999994 78.33829999999972 L 352.3435999999993 79.80239999999975" stroke-opacity="0.8" stroke-linecap="round" stroke-linejoin="round" stroke-miterlimit="10" stroke-width="2.5"/><path fill="none" stroke="rgb(0,0,0)" paint-order="fill stroke markers" d=" M 620.2738999999995 256.95849999999973 L 803.2863999999995 261.35079999999977" stroke-opacity="0.8" stroke-linecap="round" stroke-linejoin="round" stroke-miterlimit="10" stroke-width="2.5"/><path fill="none" stroke="rgb(0,0,0)" paint-order="fill stroke markers" d=" M 803.2863999999995 261.35079999999977 L 733.0095999999995 391.65569999999974" stroke-opacity="0.8" stroke-linecap="round" stroke-linejoin="round" stroke-miterlimit="10" stroke-width="2.5"/><path fill="none" stroke="rgb(0,0,0)" paint-order="fill stroke markers" d=" M 733.0095999999995 391.65569999999974 L 536.8201999999994 478.03759999999977" stroke-opacity="0.8" stroke-linecap="round" stroke-linejoin="round" stroke-miterlimit="10" stroke-width="2.5"/><path fill="none" stroke="rgb(0,0,0)" paint-order="fill stroke markers" d=" M 533.8919999999994 78.33829999999972 L 722.7608999999995 92.97929999999974" stroke-opacity="0.8" stroke-linecap="round" stroke-linejoin="round" stroke-miterlimit="10" stroke-width="2.5"/><path fill="none" stroke="rgb(0,0,0)" paint-order="fill stroke markers" d=" M 722.7608999999995 92.97929999999974 L 803.2863999999995 261.35079999999977" stroke-opacity="0.8" stroke-linecap="round" stroke-linejoin="round" stroke-miterlimit="10" stroke-width="2.5"/><path fill="rgb(0,0,0)" stroke="none" paint-order="stroke fill markers" d=" M 344.1666999999993 261.35079999999977 C 344.1666999999993 264.1122237491537 341.92812374915326 266.35079999999977 339.1666999999993 266.35079999999977 C 336.40527625084536 266.35079999999977 334.1666999999993 264.1122237491537 334.1666999999993 261.35079999999977 C 334.1666999999993 258.5893762508458 336.40527625084536 256.35079999999977 339.1666999999993 256.35079999999977 C 341.92812374915326 256.35079999999977 344.1666999999993 258.5893762508458 344.1666999999993 261.35079999999977 Z" fill-opacity="1"/><path fill="none" stroke="rgb(0,0,0)" paint-order="fill stroke markers" d=" M 344.1666999999993 261.35079999999977 C 344.1666999999993 264.1122237491537 341.92812374915326 266.35079999999977 339.1666999999993 266.35079999999977 C 336.40527625084536 266.35079999999977 334.1666999999993 264.1122237491537 334.1666999999993 261.35079999999977 C 334.1666999999993 258.5893762508458 336.40527625084536 256.35079999999977 339.1666999999993 256.35079999999977 C 341.92812374915326 256.35079999999977 344.1666999999993 258.5893762508458 344.1666999999993 261.35079999999977 Z" stroke-opacity="1" stroke-linecap="round" stroke-linejoin="round" stroke-miterlimit="10"/><path fill="rgb(0,0,0)" stroke="none" paint-order="stroke fill markers" d=" M 439.33319999999935 511.71189999999973 C 439.33319999999935 514.4733237491537 437.0946237491533 516.7118999999998 434.33319999999935 516.7118999999998 C 431.5717762508454 516.7118999999998 429.33319999999935 514.4733237491537 429.33319999999935 511.71189999999973 C 429.33319999999935 508.9504762508458 431.5717762508454 506.71189999999973 434.33319999999935 506.71189999999973 C 437.0946237491533 506.71189999999973 439.33319999999935 508.9504762508458 439.33319999999935 511.71189999999973 Z" fill-opacity="1"/><path fill="none" stroke="rgb(0,0,0)" paint-order="fill stroke markers" d=" M 439.33319999999935 511.71189999999973 C 439.33319999999935 514.4733237491537 437.0946237491533 516.7118999999998 434.33319999999935 516.7118999999998 C 431.5717762508454 516.7118999999998 429.33319999999935 514.4733237491537 429.33319999999935 511.71189999999973 C 429.33319999999935 508.9504762508458 431.5717762508454 506.71189999999973 434.33319999999935 506.71189999999973 C 437.0946237491533 506.71189999999973 439.33319999999935 508.9504762508458 439.33319999999935 511.71189999999973 Z" stroke-opacity="1" stroke-linecap="round" stroke-linejoin="round" stroke-miterlimit="10"/><path fill="rgb(0,0,0)" stroke="none" paint-order="stroke fill markers" d=" M 566.7098999999994 557.0989999999997 C 566.7098999999994 559.8604237491537 564.4713237491534 562.0989999999997 561.7098999999994 562.0989999999997 C 558.9484762508454 562.0989999999997 556.7098999999994 559.8604237491537 556.7098999999994 557.0989999999997 C 556.7098999999994 554.3375762508457 558.9484762508454 552.0989999999997 561.7098999999994 552.0989999999997 C 564.4713237491534 552.0989999999997 566.7098999999994 554.3375762508457 566.7098999999994 557.0989999999997 Z" fill-opacity="1"/><path fill="none" stroke="rgb(0,0,0)" paint-order="fill stroke markers" d=" M 566.7098999999994 557.0989999999997 C 566.7098999999994 559.8604237491537 564.4713237491534 562.0989999999997 561.7098999999994 562.0989999999997 C 558.9484762508454 562.0989999999997 556.7098999999994 559.8604237491537 556.7098999999994 557.0989999999997 C 556.7098999999994 554.3375762508457 558.9484762508454 552.0989999999997 561.7098999999994 552.0989999999997 C 564.4713237491534 552.0989999999997 566.7098999999994 554.3375762508457 566.7098999999994 557.0989999999997 Z" stroke-opacity="1" stroke-linecap="round" stroke-linejoin="round" stroke-miterlimit="10"/><path fill="rgb(0,0,0)" stroke="none" paint-order="stroke fill markers" d=" M 658 133 C 658 135.76142374915398 655.761423749154 138 653 138 C 650.238576250846 138 648 135.76142374915398 648 133 C 648 130.23857625084602 650.238576250846 128 653 128 C 655.761423749154 128 658 130.23857625084602 658 133 Z" fill-opacity="1"/><path fill="none" stroke="rgb(0,0,0)" paint-order="fill stroke markers" d=" M 658 133 C 658 135.76142374915398 655.761423749154 138 653 138 C 650.238576250846 138 648 135.76142374915398 648 133 C 648 130.23857625084602 650.238576250846 128 653 128 C 655.761423749154 128 658 130.23857625084602 658 133 Z" stroke-opacity="1" stroke-linecap="round" stroke-linejoin="round" stroke-miterlimit="10"/><path fill="rgb(0,0,0)" stroke="none" paint-order="stroke fill markers" d=" M 811.2145999999996 328.69939999999974 C 811.2145999999996 331.4608237491537 808.9760237491536 333.69939999999974 806.2145999999996 333.69939999999974 C 803.4531762508456 333.69939999999974 801.2145999999996 331.4608237491537 801.2145999999996 328.69939999999974 C 801.2145999999996 325.9379762508458 803.4531762508456 323.69939999999974 806.2145999999996 323.69939999999974 C 808.9760237491536 323.69939999999974 811.2145999999996 325.9379762508458 811.2145999999996 328.69939999999974 Z" fill-opacity="1"/><path fill="none" stroke="rgb(0,0,0)" paint-order="fill stroke markers" d=" M 811.2145999999996 328.69939999999974 C 811.2145999999996 331.4608237491537 808.9760237491536 333.69939999999974 806.2145999999996 333.69939999999974 C 803.4531762508456 333.69939999999974 801.2145999999996 331.4608237491537 801.2145999999996 328.69939999999974 C 801.2145999999996 325.9379762508458 803.4531762508456 323.69939999999974 806.2145999999996 323.69939999999974 C 808.9760237491536 323.69939999999974 811.2145999999996 325.9379762508458 811.2145999999996 328.69939999999974 Z" stroke-opacity="1" stroke-linecap="round" stroke-linejoin="round" stroke-miterlimit="10"/><path fill="rgb(0,0,0)" stroke="none" paint-order="stroke fill markers" d=" M 824.3914999999995 470.71709999999973 C 824.3914999999995 473.4785237491537 822.1529237491535 475.71709999999973 819.3914999999995 475.71709999999973 C 816.6300762508455 475.71709999999973 814.3914999999995 473.4785237491537 814.3914999999995 470.71709999999973 C 814.3914999999995 467.9556762508458 816.6300762508455 465.71709999999973 819.3914999999995 465.71709999999973 C 822.1529237491535 465.71709999999973 824.3914999999995 467.9556762508458 824.3914999999995 470.71709999999973 Z" fill-opacity="1"/><path fill="none" stroke="rgb(0,0,0)" paint-order="fill stroke markers" d=" M 824.3914999999995 470.71709999999973 C 824.3914999999995 473.4785237491537 822.1529237491535 475.71709999999973 819.3914999999995 475.71709999999973 C 816.6300762508455 475.71709999999973 814.3914999999995 473.4785237491537 814.3914999999995 470.71709999999973 C 814.3914999999995 467.9556762508458 816.6300762508455 465.71709999999973 819.3914999999995 465.71709999999973 C 822.1529237491535 465.71709999999973 824.3914999999995 467.9556762508458 824.3914999999995 470.71709999999973 Z" stroke-opacity="1" stroke-linecap="round" stroke-linejoin="round" stroke-miterlimit="10"/><path fill="rgb(0,0,0)" stroke="none" paint-order="stroke fill markers" d=" M 478.8638999999994 308.20199999999977 C 478.8638999999994 310.9634237491537 476.6253237491533 313.20199999999977 473.8638999999994 313.20199999999977 C 471.1024762508454 313.20199999999977 468.8638999999994 310.9634237491537 468.8638999999994 308.20199999999977 C 468.8638999999994 305.4405762508458 471.1024762508454 303.20199999999977 473.8638999999994 303.20199999999977 C 476.6253237491533 303.20199999999977 478.8638999999994 305.4405762508458 478.8638999999994 308.20199999999977 Z" fill-opacity="1"/><path fill="none" stroke="rgb(0,0,0)" paint-order="fill stroke markers" d=" M 478.8638999999994 308.20199999999977 C 478.8638999999994 310.9634237491537 476.6253237491533 313.20199999999977 473.8638999999994 313.20199999999977 C 471.1024762508454 313.20199999999977 468.8638999999994 310.9634237491537 468.8638999999994 308.20199999999977 C 468.8638999999994 305.4405762508458 471.1024762508454 303.20199999999977 473.8638999999994 303.20199999999977 C 476.6253237491533 303.20199999999977 478.8638999999994 305.4405762508458 478.8638999999994 308.20199999999977 Z" stroke-opacity="1" stroke-linecap="round" stroke-linejoin="round" stroke-miterlimit="10"/><path fill="rgb(0,0,0)" stroke="none" paint-order="stroke fill markers" d=" M 632 499 C 632 501.76142374915395 629.761423749154 504 627 504 C 624.238576250846 504 622 501.76142374915395 622 499 C 622 496.23857625084605 624.238576250846 494 627 494 C 629.761423749154 494 632 496.23857625084605 632 499 Z" fill-opacity="1"/><path fill="none" stroke="rgb(0,0,0)" paint-order="fill stroke markers" d=" M 632 499 C 632 501.76142374915395 629.761423749154 504 627 504 C 624.238576250846 504 622 501.76142374915395 622 499 C 622 496.23857625084605 624.238576250846 494 627 494 C 629.761423749154 494 632 496.23857625084605 632 499 Z" stroke-opacity="1" stroke-linecap="round" stroke-linejoin="round" stroke-miterlimit="10"/><path fill="rgb(0,0,0)" stroke="none" paint-order="stroke fill markers" d=" M 671 341 C 671 343.76142374915395 668.761423749154 346 666 346 C 663.238576250846 346 661 343.76142374915395 661 341 C 661 338.23857625084605 663.238576250846 336 666 336 C 668.761423749154 336 671 338.23857625084605 671 341 Z" fill-opacity="1"/><path fill="none" stroke="rgb(0,0,0)" paint-order="fill stroke markers" d=" M 671 341 C 671 343.76142374915395 668.761423749154 346 666 346 C 663.238576250846 346 661 343.76142374915395 661 341 C 661 338.23857625084605 663.238576250846 336 666 336 C 668.761423749154 336 671 338.23857625084605 671 341 Z" stroke-opacity="1" stroke-linecap="round" stroke-linejoin="round" stroke-miterlimit="10"/><path fill="rgb(0,0,0)" stroke="none" paint-order="stroke fill markers" d=" M 357.3435999999993 79.80239999999975 C 357.3435999999993 82.56382374915371 355.10502374915325 84.80239999999975 352.3435999999993 84.80239999999975 C 349.58217625084535 84.80239999999975 347.3435999999993 82.56382374915371 347.3435999999993 79.80239999999975 C 347.3435999999993 77.04097625084579 349.58217625084535 74.80239999999975 352.3435999999993 74.80239999999975 C 355.10502374915325 74.80239999999975 357.3435999999993 77.04097625084579 357.3435999999993 79.80239999999975 Z" fill-opacity="1"/><path fill="none" stroke="rgb(0,0,0)" paint-order="fill stroke markers" d=" M 357.3435999999993 79.80239999999975 C 357.3435999999993 82.56382374915371 355.10502374915325 84.80239999999975 352.3435999999993 84.80239999999975 C 349.58217625084535 84.80239999999975 347.3435999999993 82.56382374915371 347.3435999999993 79.80239999999975 C 347.3435999999993 77.04097625084579 349.58217625084535 74.80239999999975 352.3435999999993 74.80239999999975 C 355.10502374915325 74.80239999999975 357.3435999999993 77.04097625084579 357.3435999999993 79.80239999999975 Z" stroke-opacity="1" stroke-linecap="round" stroke-linejoin="round" stroke-miterlimit="10"/><path fill="rgb(0,0,0)" stroke="none" paint-order="stroke fill markers" d=" M 257.78479999999934 239.38929999999976 C 257.78479999999934 242.15072374915374 255.5462237491533 244.38929999999976 252.78479999999934 244.38929999999976 C 250.02337625084536 244.38929999999976 247.78479999999934 242.15072374915374 247.78479999999934 239.38929999999976 C 247.78479999999934 236.6278762508458 250.02337625084536 234.38929999999976 252.78479999999934 234.38929999999976 C 255.5462237491533 234.38929999999976 257.78479999999934 236.6278762508458 257.78479999999934 239.38929999999976 Z" fill-opacity="1"/><path fill="none" stroke="rgb(0,0,0)" paint-order="fill stroke markers" d=" M 257.78479999999934 239.38929999999976 C 257.78479999999934 242.15072374915374 255.5462237491533 244.38929999999976 252.78479999999934 244.38929999999976 C 250.02337625084536 244.38929999999976 247.78479999999934 242.15072374915374 247.78479999999934 239.38929999999976 C 247.78479999999934 236.6278762508458 250.02337625084536 234.38929999999976 252.78479999999934 234.38929999999976 C 255.5462237491533 234.38929999999976 257.78479999999934 236.6278762508458 257.78479999999934 239.38929999999976 Z" stroke-opacity="1" stroke-linecap="round" stroke-linejoin="round" stroke-miterlimit="10"/><path fill="rgb(0,0,0)" stroke="none" paint-order="stroke fill markers" d=" M 344.1666999999993 460.46839999999975 C 344.1666999999993 463.2298237491537 341.92812374915326 465.46839999999975 339.1666999999993 465.46839999999975 C 336.40527625084536 465.46839999999975 334.1666999999993 463.2298237491537 334.1666999999993 460.46839999999975 C 334.1666999999993 457.7069762508458 336.40527625084536 455.46839999999975 339.1666999999993 455.46839999999975 C 341.92812374915326 455.46839999999975 344.1666999999993 457.7069762508458 344.1666999999993 460.46839999999975 Z" fill-opacity="1"/><path fill="none" stroke="rgb(0,0,0)" paint-order="fill stroke markers" d=" M 344.1666999999993 460.46839999999975 C 344.1666999999993 463.2298237491537 341.92812374915326 465.46839999999975 339.1666999999993 465.46839999999975 C 336.40527625084536 465.46839999999975 334.1666999999993 463.2298237491537 334.1666999999993 460.46839999999975 C 334.1666999999993 457.7069762508458 336.40527625084536 455.46839999999975 339.1666999999993 455.46839999999975 C 341.92812374915326 455.46839999999975 344.1666999999993 457.7069762508458 344.1666999999993 460.46839999999975 Z" stroke-opacity="1" stroke-linecap="round" stroke-linejoin="round" stroke-miterlimit="10"/><path fill="rgb(0,0,0)" stroke="none" paint-order="stroke fill markers" d=" M 541.8201999999994 478.03759999999977 C 541.8201999999994 480.7990237491537 539.5816237491534 483.03759999999977 536.8201999999994 483.03759999999977 C 534.0587762508454 483.03759999999977 531.8201999999994 480.7990237491537 531.8201999999994 478.03759999999977 C 531.8201999999994 475.2761762508458 534.0587762508454 473.03759999999977 536.8201999999994 473.03759999999977 C 539.5816237491534 473.03759999999977 541.8201999999994 475.2761762508458 541.8201999999994 478.03759999999977 Z" fill-opacity="1"/><path fill="none" stroke="rgb(0,0,0)" paint-order="fill stroke markers" d=" M 541.8201999999994 478.03759999999977 C 541.8201999999994 480.7990237491537 539.5816237491534 483.03759999999977 536.8201999999994 483.03759999999977 C 534.0587762508454 483.03759999999977 531.8201999999994 480.7990237491537 531.8201999999994 478.03759999999977 C 531.8201999999994 475.2761762508458 534.0587762508454 473.03759999999977 536.8201999999994 473.03759999999977 C 539.5816237491534 473.03759999999977 541.8201999999994 475.2761762508458 541.8201999999994 478.03759999999977 Z" stroke-opacity="1" stroke-linecap="round" stroke-linejoin="round" stroke-miterlimit="10"/><path fill="rgb(0,0,0)" stroke="none" paint-order="stroke fill markers" d=" M 625.2738999999995 256.95849999999973 C 625.2738999999995 259.7199237491537 623.0353237491535 261.95849999999973 620.2738999999995 261.95849999999973 C 617.5124762508455 261.95849999999973 615.2738999999995 259.7199237491537 615.2738999999995 256.95849999999973 C 615.2738999999995 254.19707625084575 617.5124762508455 251.95849999999973 620.2738999999995 251.95849999999973 C 623.0353237491535 251.95849999999973 625.2738999999995 254.19707625084575 625.2738999999995 256.95849999999973 Z" fill-opacity="1"/><path fill="none" stroke="rgb(0,0,0)" paint-order="fill stroke markers" d=" M 625.2738999999995 256.95849999999973 C 625.2738999999995 259.7199237491537 623.0353237491535 261.95849999999973 620.2738999999995 261.95849999999973 C 617.5124762508455 261.95849999999973 615.2738999999995 259.7199237491537 615.2738999999995 256.95849999999973 C 615.2738999999995 254.19707625084575 617.5124762508455 251.95849999999973 620.2738999999995 251.95849999999973 C 623.0353237491535 251.95849999999973 625.2738999999995 254.19707625084575 625.2738999999995 256.95849999999973 Z" stroke-opacity="1" stroke-linecap="round" stroke-linejoin="round" stroke-miterlimit="10"/><path fill="rgb(0,0,0)" stroke="none" paint-order="stroke fill markers" d=" M 538.8919999999994 78.33829999999972 C 538.8919999999994 81.09972374915368 536.6534237491534 83.33829999999972 533.8919999999994 83.33829999999972 C 531.1305762508454 83.33829999999972 528.8919999999994 81.09972374915368 528.8919999999994 78.33829999999972 C 528.8919999999994 75.57687625084576 531.1305762508454 73.33829999999972 533.8919999999994 73.33829999999972 C 536.6534237491534 73.33829999999972 538.8919999999994 75.57687625084576 538.8919999999994 78.33829999999972 Z" fill-opacity="1"/><path fill="none" stroke="rgb(0,0,0)" paint-order="fill stroke markers" d=" M 538.8919999999994 78.33829999999972 C 538.8919999999994 81.09972374915368 536.6534237491534 83.33829999999972 533.8919999999994 83.33829999999972 C 531.1305762508454 83.33829999999972 528.8919999999994 81.09972374915368 528.8919999999994 78.33829999999972 C 528.8919999999994 75.57687625084576 531.1305762508454 73.33829999999972 533.8919999999994 73.33829999999972 C 536.6534237491534 73.33829999999972 538.8919999999994 75.57687625084576 538.8919999999994 78.33829999999972 Z" stroke-opacity="1" stroke-linecap="round" stroke-linejoin="round" stroke-miterlimit="10"/><path fill="rgb(0,0,0)" stroke="none" paint-order="stroke fill markers" d=" M 808.2863999999995 261.35079999999977 C 808.2863999999995 264.1122237491537 806.0478237491535 266.35079999999977 803.2863999999995 266.35079999999977 C 800.5249762508455 266.35079999999977 798.2863999999995 264.1122237491537 798.2863999999995 261.35079999999977 C 798.2863999999995 258.5893762508458 800.5249762508455 256.35079999999977 803.2863999999995 256.35079999999977 C 806.0478237491535 256.35079999999977 808.2863999999995 258.5893762508458 808.2863999999995 261.35079999999977 Z" fill-opacity="1"/><path fill="none" stroke="rgb(0,0,0)" paint-order="fill stroke markers" d=" M 808.2863999999995 261.35079999999977 C 808.2863999999995 264.1122237491537 806.0478237491535 266.35079999999977 803.2863999999995 266.35079999999977 C 800.5249762508455 266.35079999999977 798.2863999999995 264.1122237491537 798.2863999999995 261.35079999999977 C 798.2863999999995 258.5893762508458 800.5249762508455 256.35079999999977 803.2863999999995 256.35079999999977 C 806.0478237491535 256.35079999999977 808.2863999999995 258.5893762508458 808.2863999999995 261.35079999999977 Z" stroke-opacity="1" stroke-linecap="round" stroke-linejoin="round" stroke-miterlimit="10"/><path fill="rgb(0,0,0)" stroke="none" paint-order="stroke fill markers" d=" M 738.0095999999995 391.65569999999974 C 738.0095999999995 394.4171237491537 735.7710237491535 396.65569999999974 733.0095999999995 396.65569999999974 C 730.2481762508455 396.65569999999974 728.0095999999995 394.4171237491537 728.0095999999995 391.65569999999974 C 728.0095999999995 388.8942762508458 730.2481762508455 386.65569999999974 733.0095999999995 386.65569999999974 C 735.7710237491535 386.65569999999974 738.0095999999995 388.8942762508458 738.0095999999995 391.65569999999974 Z" fill-opacity="1"/><path fill="none" stroke="rgb(0,0,0)" paint-order="fill stroke markers" d=" M 738.0095999999995 391.65569999999974 C 738.0095999999995 394.4171237491537 735.7710237491535 396.65569999999974 733.0095999999995 396.65569999999974 C 730.2481762508455 396.65569999999974 728.0095999999995 394.4171237491537 728.0095999999995 391.65569999999974 C 728.0095999999995 388.8942762508458 730.2481762508455 386.65569999999974 733.0095999999995 386.65569999999974 C 735.7710237491535 386.65569999999974 738.0095999999995 388.8942762508458 738.0095999999995 391.65569999999974 Z" stroke-opacity="1" stroke-linecap="round" stroke-linejoin="round" stroke-miterlimit="10"/><path fill="rgb(0,0,0)" stroke="none" paint-order="stroke fill markers" d=" M 727.7608999999995 92.97929999999974 C 727.7608999999995 95.7407237491537 725.5223237491535 97.97929999999974 722.7608999999995 97.97929999999974 C 719.9994762508455 97.97929999999974 717.7608999999995 95.7407237491537 717.7608999999995 92.97929999999974 C 717.7608999999995 90.21787625084578 719.9994762508455 87.97929999999974 722.7608999999995 87.97929999999974 C 725.5223237491535 87.97929999999974 727.7608999999995 90.21787625084578 727.7608999999995 92.97929999999974 Z" fill-opacity="1"/><path fill="none" stroke="rgb(0,0,0)" paint-order="fill stroke markers" d=" M 727.7608999999995 92.97929999999974 C 727.7608999999995 95.7407237491537 725.5223237491535 97.97929999999974 722.7608999999995 97.97929999999974 C 719.9994762508455 97.97929999999974 717.7608999999995 95.7407237491537 717.7608999999995 92.97929999999974 C 717.7608999999995 90.21787625084578 719.9994762508455 87.97929999999974 722.7608999999995 87.97929999999974 C 725.5223237491535 87.97929999999974 727.7608999999995 90.21787625084578 727.7608999999995 92.97929999999974 Z" stroke-opacity="1" stroke-linecap="round" stroke-linejoin="round" stroke-miterlimit="10"/><path fill="rgb(0,0,0)" stroke="none" paint-order="stroke fill markers" d=" M 579.6294365667225 164.64282984983396 C 579.6294365667225 166.85196884915712 577.8385755660456 168.64282984983396 575.6294365667225 168.64282984983396 C 573.4202975673993 168.64282984983396 571.6294365667225 166.85196884915712 571.6294365667225 164.64282984983396 C 571.6294365667225 162.43369085051077 573.4202975673993 160.64282984983396 575.6294365667225 160.64282984983396 C 577.8385755660456 160.64282984983396 579.6294365667225 162.43369085051077 579.6294365667225 164.64282984983396 Z" fill-opacity="1"/><path fill="none" stroke="rgb(0,0,0)" paint-order="fill stroke markers" d=" M 579.6294365667225 164.64282984983396 C 579.6294365667225 166.85196884915712 577.8385755660456 168.64282984983396 575.6294365667225 168.64282984983396 C 573.4202975673993 168.64282984983396 571.6294365667225 166.85196884915712 571.6294365667225 164.64282984983396 C 571.6294365667225 162.43369085051077 573.4202975673993 160.64282984983396 575.6294365667225 160.64282984983396 C 577.8385755660456 160.64282984983396 579.6294365667225 162.43369085051077 579.6294365667225 164.64282984983396 Z" stroke-opacity="1" stroke-linecap="round" stroke-linejoin="round" stroke-miterlimit="10"/><path fill="rgb(0,0,0)" stroke="none" paint-order="stroke fill markers" d=" M 597.2381886492107 328.57941954331756 C 597.2381886492107 330.7885585426407 595.4473276485338 332.57941954331756 593.2381886492107 332.57941954331756 C 591.0290496498875 332.57941954331756 589.2381886492107 330.7885585426407 589.2381886492107 328.57941954331756 C 589.2381886492107 326.3702805439944 591.0290496498875 324.57941954331756 593.2381886492107 324.57941954331756 C 595.4473276485338 324.57941954331756 597.2381886492107 326.3702805439944 597.2381886492107 328.57941954331756 Z" fill-opacity="1"/><path fill="none" stroke="rgb(0,0,0)" paint-order="fill stroke markers" d=" M 597.2381886492107 328.57941954331756 C 597.2381886492107 330.7885585426407 595.4473276485338 332.57941954331756 593.2381886492107 332.57941954331756 C 591.0290496498875 332.57941954331756 589.2381886492107 330.7885585426407 589.2381886492107 328.57941954331756 C 589.2381886492107 326.3702805439944 591.0290496498875 324.57941954331756 593.2381886492107 324.57941954331756 C 595.4473276485338 324.57941954331756 597.2381886492107 326.3702805439944 597.2381886492107 328.57941954331756 Z" stroke-opacity="1" stroke-linecap="round" stroke-linejoin="round" stroke-miterlimit="10"/><path fill="rgb(0,0,0)" stroke="none" paint-order="stroke fill markers" d=" M 756.5332094359827 260.1327234264634 C 756.5332094359827 262.34186242578653 754.7423484353059 264.1327234264634 752.5332094359827 264.1327234264634 C 750.3240704366596 264.1327234264634 748.5332094359827 262.34186242578653 748.5332094359827 260.1327234264634 C 748.5332094359827 257.9235844271402 750.3240704366596 256.1327234264634 752.5332094359827 256.1327234264634 C 754.7423484353059 256.1327234264634 756.5332094359827 257.9235844271402 756.5332094359827 260.1327234264634 Z" fill-opacity="1"/><path fill="none" stroke="rgb(0,0,0)" paint-order="fill stroke markers" d=" M 756.5332094359827 260.1327234264634 C 756.5332094359827 262.34186242578653 754.7423484353059 264.1327234264634 752.5332094359827 264.1327234264634 C 750.3240704366596 264.1327234264634 748.5332094359827 262.34186242578653 748.5332094359827 260.1327234264634 C 748.5332094359827 257.9235844271402 750.3240704366596 256.1327234264634 752.5332094359827 256.1327234264634 C 754.7423484353059 256.1327234264634 756.5332094359827 257.9235844271402 756.5332094359827 260.1327234264634 Z" stroke-opacity="1" stroke-linecap="round" stroke-linejoin="round" stroke-miterlimit="10"/><path fill="rgb(0,0,0)" stroke="none" paint-order="stroke fill markers" d=" M 564.2847892948628 415.8770213416775 C 564.2847892948628 418.08616034100066 562.4939282941859 419.8770213416775 560.2847892948628 419.8770213416775 C 558.0756502955396 419.8770213416775 556.2847892948628 418.08616034100066 556.2847892948628 415.8770213416775 C 556.2847892948628 413.66788234235435 558.0756502955396 411.8770213416775 560.2847892948628 411.8770213416775 C 562.4939282941859 411.8770213416775 564.2847892948628 413.66788234235435 564.2847892948628 415.8770213416775 Z" fill-opacity="1"/><path fill="none" stroke="rgb(0,0,0)" paint-order="fill stroke markers" d=" M 564.2847892948628 415.8770213416775 C 564.2847892948628 418.08616034100066 562.4939282941859 419.8770213416775 560.2847892948628 419.8770213416775 C 558.0756502955396 419.8770213416775 556.2847892948628 418.08616034100066 556.2847892948628 415.8770213416775 C 556.2847892948628 413.66788234235435 558.0756502955396 411.8770213416775 560.2847892948628 411.8770213416775 C 562.4939282941859 411.8770213416775 564.2847892948628 413.66788234235435 564.2847892948628 415.8770213416775 Z" stroke-opacity="1" stroke-linecap="round" stroke-linejoin="round" stroke-miterlimit="10"/><path fill="rgb(0,0,0)" stroke="none" paint-order="stroke fill markers" d=" M 595.0213864910997 454.17289848526156 C 595.0213864910997 456.3820374845847 593.2305254904229 458.17289848526156 591.0213864910997 458.17289848526156 C 588.8122474917766 458.17289848526156 587.0213864910997 456.3820374845847 587.0213864910997 454.17289848526156 C 587.0213864910997 451.9637594859384 588.8122474917766 450.17289848526156 591.0213864910997 450.17289848526156 C 593.2305254904229 450.17289848526156 595.0213864910997 451.9637594859384 595.0213864910997 454.17289848526156 Z" fill-opacity="1"/><path fill="none" stroke="rgb(0,0,0)" paint-order="fill stroke markers" d=" M 595.0213864910997 454.17289848526156 C 595.0213864910997 456.3820374845847 593.2305254904229 458.17289848526156 591.0213864910997 458.17289848526156 C 588.8122474917766 458.17289848526156 587.0213864910997 456.3820374845847 587.0213864910997 454.17289848526156 C 587.0213864910997 451.9637594859384 588.8122474917766 450.17289848526156 591.0213864910997 450.17289848526156 C 593.2305254904229 450.17289848526156 595.0213864910997 451.9637594859384 595.0213864910997 454.17289848526156 Z" stroke-opacity="1" stroke-linecap="round" stroke-linejoin="round" stroke-miterlimit="10"/><path fill="rgb(0,0,0)" stroke="none" paint-order="stroke fill markers" d=" M 647.8010822002014 430.93407724020926 C 647.8010822002014 433.1432162395324 646.0102211995246 434.93407724020926 643.8010822002014 434.93407724020926 C 641.5919432008783 434.93407724020926 639.8010822002014 433.1432162395324 639.8010822002014 430.93407724020926 C 639.8010822002014 428.7249382408861 641.5919432008783 426.93407724020926 643.8010822002014 426.93407724020926 C 646.0102211995246 426.93407724020926 647.8010822002014 428.7249382408861 647.8010822002014 430.93407724020926 Z" fill-opacity="1"/><path fill="none" stroke="rgb(0,0,0)" paint-order="fill stroke markers" d=" M 647.8010822002014 430.93407724020926 C 647.8010822002014 433.1432162395324 646.0102211995246 434.93407724020926 643.8010822002014 434.93407724020926 C 641.5919432008783 434.93407724020926 639.8010822002014 433.1432162395324 639.8010822002014 430.93407724020926 C 639.8010822002014 428.7249382408861 641.5919432008783 426.93407724020926 643.8010822002014 426.93407724020926 C 646.0102211995246 426.93407724020926 647.8010822002014 428.7249382408861 647.8010822002014 430.93407724020926 Z" stroke-opacity="1" stroke-linecap="round" stroke-linejoin="round" stroke-miterlimit="10"/></g></g></svg>