<svg version="1.1" xmlns="http://www.w3.org/2000/svg" xmlns:xlink="http://www.w3.org/1999/xlink" width="1106" height="680"><defs><clipPath id="OtiPsRimBUkq"><path fill="none" stroke="none" d=" M 0 0 L 1106 0 L 1106 680 L 0 680 L 0 0 Z"/></clipPath></defs><g transform="scale(1,1)" clip-path="url(#OtiPsRimBUkq)"><g><rect fill="rgb(255,255,255)" stroke="none" x="0" y="0" width="1106" height="680" fill-opacity="1"/><path fill="none" stroke="rgb(211,47,47)" paint-order="fill stroke markers" d=" M 339.1666999999993 261.35079999999977 L 434.33319999999935 511.71189999999973" stroke-opacity="0.8" stroke-linecap="round" stroke-linejoin="round" stroke-miterlimit="10" stroke-width="2.5"/><path fill="none" stroke="rgb(211,47,47)" paint-order="fill stroke markers" d=" M 561.7098999999994 557.0989999999997 L 434.33319999999935 511.71189999999973" stroke-opacity="0.8" stroke-linecap="round" stroke-linejoin="round" stroke-miterlimit="10" stroke-width="2.5"/><path fill="none" stroke="rgb(211,47,47)" paint-order="fill stroke markers" d=" M 339.1666999999993 261.35079999999977 L 653 133" stroke-opacity="0.8" stroke-linecap="round" stroke-linejoin="round" stroke-miterlimit="10" stroke-width="2.5"/><path fill="none" stroke="rgb(211,47,47)" paint-order="fill stroke markers" d=" M 653 133 L 806.2145999999996 328.69939999999974" stroke-opacity="0.8" stroke-linecap="round" stroke-linejoin="round" stroke-miterlimit="10" stroke-width="2.5"/><path fill="none" stroke="rgb(211,47,47)" paint-order="fill stroke markers" d=" M 806.2145999999996 328.69939999999974 L 819.3914999999995 470.71709999999973" stroke-opacity="0.8" stroke-linecap="round" stroke-linejoin="round" stroke-miterlimit="10" stroke-width="2.5"/><path fill="none" stroke="rgb(211,47,47)" paint-order="fill stroke markers" d=" M 819.3914999999995 470.71709999999973 L 561.7098999999994 557.0989999999997" stroke-opacity="0.8" stroke-linecap="round" stroke-linejoin="round" stroke-miterlimit="10" stroke-width="2.5"/><path fill="none" stroke="rgb(211,47,47)" paint-order="fill stroke markers" d=" M 473.8638999999994 308.20199999999977 L 627 499" stroke-opacity="0.8" stroke-linecap="round" stroke-linejoin="round" stroke-miterlimit="10" stroke-width="2.5"/><path fill="none" stroke="rgb(211,47,47)" paint-order="fill stroke markers" d=" M 627 499 L 666 341" stroke-opacity="0.8" stroke-linecap="round" stroke-linejoin="round" stroke-miterlimit="10" stroke-width="2.5"/><path fill="none" stroke="rgb(211,47,47)" paint-order="fill stroke markers" d=" M 666 341 L 473.8638999999994 308.20199999999977" stroke-opacity="0.8" stroke-linecap="round" stroke-linejoin="round" stroke-miterlimit="10" stroke-width="2.5"/><path fill="rgb(211,47,47)" stroke="none" paint-order="stroke fill markers" d=" M 344.1666999999993 261.35079999999977 C 344.1666999999993 264.1122237491537 341.92812374915326 266.35079999999977 339.1666999999993 266.35079999999977 C 336.40527625084536 266.35079999999977 334.1666999999993 264.1122237491537 334.1666999999993 261.35079999999977 C 334.1666999999993 258.5893762508458 336.40527625084536 256.35079999999977 339.1666999999993 256.35079999999977 C 341.92812374915326 256.35079999999977 344.1666999999993 258.5893762508458 344.1666999999993 261.35079999999977 Z" fill-opacity="1"/><path fill="none" stroke="rgb(0,0,0)" paint-order="fill stroke markers" d=" M 344.1666999999993 261.35079999999977 C 344.1666999999993 264.1122237491537 341.92812374915326 266.35079999999977 339.1666999999993 266.35079999999977 C 336.40527625084536 266.35079999999977 334.1666999999993 264.1122237491537 334.1666999999993 261.35079999999977 C 334.1666999999993 258.5893762508458 336.40527625084536 256.35079999999977 339.1666999999993 256.35079999999977 C 341.92812374915326 256.35079999999977 344.1666999999993 258.5893762508458 344.1666999999993 261.35079999999977 Z" stroke-opacity="1" stroke-linecap="round" stroke-linejoin="round" stroke-miterlimit="10"/><path fill="rgb(211,47,47)" stroke="none" paint-order="stroke fill markers" d=" M 439.33319999999935 511.71189999999973 C 439.33319999999935 514.4733237491537 437.0946237491533 516.7118999999998 434.33319999999935 516.7118999999998 C 431.5717762508454 516.7118999999998 429.33319999999935 514.4733237491537 429.33319999999935 511.71189999999973 C 429.33319999999935 508.9504762508458 431.5717762508454 506.71189999999973 434.33319999999935 506.71189999999973 C 437.0946237491533 506.71189999999973 439.33319999999935 508.9504762508458 439.33319999999935 511.71189999999973 Z" fill-opacity="1"/><path fill="none" stroke="rgb(0,0,0)" paint-order="fill stroke markers" d=" M 439.33319999999935 511.71189999999973 C 439.33319999999935 514.4733237491537 437.0946237491533 516.7118999999998 434.33319999999935 516.7118999999998 C 431.5717762508454 516.7118999999998 429.33319999999935 514.4733237491537 429.33319999999935 511.71189999999973 C 429.33319999999935 508.9504762508458 431.5717762508454 506.71189999999973 434.33319999999935 506.71189999999973 C 437.0946237491533 506.71189999999973 439.33319999999935 508.9504762508458 439.33319999999935 511.71189999999973 Z" stroke-opacity="1" stroke-linecap="round" stroke-linejoin="round" stroke-miterlimit="10"/><path fill="rgb(211,47,47)" stroke="none" paint-order="stroke fill markers" d=" M 566.7098999999994 557.0989999999997 C 566.7098999999994 559.8604237491537 564.4713237491534 562.0989999999997 561.7098999999994 562.0989999999997 C 558.9484762508454 562.0989999999997 556.7098999999994 559.8604237491537 556.7098999999994 557.0989999999997 C 556.7098999999994 554.3375762508457 558.9484762508454 552.0989999999997 561.7098999999994 552.0989999999997 C 564.4713237491534 552.0989999999997 566.7098999999994 554.3375762508457 566.7098999999994 557.0989999999997 Z" fill-opacity="1"/><path fill="none" stroke="rgb(0,0,0)" paint-order="fill stroke markers" d=" M 566.7098999999994 557.0989999999997 C 566.7098999999994 559.8604237491537 564.4713237491534 562.0989999999997 561.7098999999994 562.0989999999997 C 558.9484762508454 562.0989999999997 556.7098999999994 559.8604237491537 556.7098999999994 557.0989999999997 C 556.7098999999994 554.3375762508457 558.9484762508454 552.0989999999997 561.7098999999994 552.0989999999997 C 564.4713237491534 552.0989999999997 566.7098999999994 554.3375762508457 566.7098999999994 557.0989999999997 Z" stroke-opacity="1" stroke-linecap="round" stroke-linejoin="round" stroke-miterlimit="10"/><path fill="rgb(211,47,47)" stroke="none" paint-order="stroke fill markers" d=" M 658 133 C 658 135.76142374915398 655.761423749154 138 653 138 C 650.238576250846 138 648 135.76142374915398 648 133 C 648 130.23857625084602 650.238576250846 128 653 128 C 655.761423749154 128 658 130.23857625084602 658 133 Z" fill-opacity="1"/><path fill="none" stroke="rgb(0,0,0)" paint-order="fill stroke markers" d=" M 658 133 C 658 135.76142374915398 655.761423749154 138 653 138 C 650.238576250846 138 648 135.76142374915398 648 133 C 648 130.23857625084602 650.238576250846 128 653 128 C 655.761423749154 128 658 130.23857625084602 658 133 Z" stroke-opacity="1" stroke-linecap="round" stroke-linejoin="round" stroke-miterlimit="10"/><path fill="rgb(211,47,47)" stroke="none" paint-order="stroke fill markers" d=" M 811.2145999999996 328.69939999999974 C 811.2145999999996 331.4608237491537 808.9760237491536 333.69939999999974 806.2145999999996 333.69939999999974 C 803.4531762508456 333.69939999999974 801.2145999999996 331.4608237491537 801.2145999999996 328.69939999999974 C 801.2145999999996 325.9379762508458 803.4531762508456 323.69939999999974 806.2145999999996 323.69939999999974 C 808.9760237491536 323.69939999999974 811.2145999999996 325.9379762508458 811.2145999999996 328.69939999999974 Z" fill-opacity="1"/><path fill="none" stroke="rgb(0,0,0)" paint-order="fill stroke markers" d=" M 811.2145999999996 328.69939999999974 C 811.2145999999996 331.4608237491537 808.9760237491536 333.69939999999974 806.2145999999996 333.69939999999974 C 803.4531762508456 333.69939999999974 801.2145999999996 331.4608237491537 801.2145999999996 328.69939999999974 C 801.2145999999996 325.9379762508458 803.4531762508456 323.69939999999974 806.2145999999996 323.69939999999974 C 808.9760237491536 323.69939999999974 811.2145999999996 325.9379762508458 811.2145999999996 328.69939999999974 Z" stroke-opacity="1" stroke-linecap="round" stroke-linejoin="round" stroke-miterlimit="10"/><path fill="rgb(211,47,47)" stroke="none" paint-order="stroke fill markers" d=" M 824.3914999999995 470.71709999999973 C 824.3914999999995 473.4785237491537 822.1529237491535 475.71709999999973 819.3914999999995 475.71709999999973 C 816.6300762508455 475.71709999999973 814.3914999999995 473.4785237491537 814.3914999999995 470.71709999999973 C 814.3914999999995 467.9556762508458 816.6300762508455 465.71709999999973 819.3914999999995 465.71709999999973 C 822.1529237491535 465.71709999999973 824.3914999999995 467.9556762508458 824.3914999999995 470.71709999999973 Z" fill-opacity="1"/><path fill="none" stroke="rgb(0,0,0)" paint-order="fill stroke markers" d=" M 824.3914999999995 470.71709999999973 C 824.3914999999995 473.4785237491537 822.1529237491535 475.71709999999973 819.3914999999995 475.71709999999973 C 816.6300762508455 475.71709999999973 814.3914999999995 473.4785237491537 814.3914999999995 470.71709999999973 C 814.3914999999995 467.9556762508458 816.6300762508455 465.71709999999973 819.3914999999995 465.71709999999973 C 822.1529237491535 465.71709999999973 824.3914999999995 467.9556762508458 824.3914999999995 470.71709999999973 Z" stroke-opacity="1" stroke-linecap="round" stroke-linejoin="round" stroke-miterlimit="10"/><path fill="rgb(211,47,47)" stroke="none" paint-order="stroke fill markers" d=" M 478.8638999999994 308.20199999999977 C 478.8638999999994 310.9634237491537 476.6253237491533 313.20199999999977 473.8638999999994 313.20199999999977 C 471.1024762508454 313.20199999999977 468.8638999999994 310.9634237491537 468.8638999999994 308.20199999999977 C 468.8638999999994 305.4405762508458 471.1024762508454 303.20199999999977 473.8638999999994 303.20199999999977 C 476.6253237491533 303.20199999999977 478.8638999999994 305.4405762508458 478.8638999999994 308.20199999999977 Z" fill-opacity="1"/><path fill="none" stroke="rgb(0,0,0)" paint-order="fill stroke markers" d=" M 478.8638999999994 308.20199999999977 C 478.8638999999994 310.9634237491537 476.6253237491533 313.20199999999977 473.8638999999994 313.20199999999977 C 471.1024762508454 313.20199999999977 468.8638999999994 310.9634237491537 468.8638999999994 308.20199999999977 C 468.8638999999994 305.4405762508458 471.1024762508454 303.20199999999977 473.8638999999994 303.20199999999977 C 476.6253237491533 303.20199999999977 478.8638999999994 305.4405762508458 478.8638999999994 308.20199999999977 Z" stroke-opacity="1" stroke-linecap="round" stroke-linejoin="round" stroke-miterlimit="10"/><path fill="rgb(211,47,47)" stroke="none" paint-order="stroke fill markers" d=" M 632 499 C 632 501.76142374915395 629.761423749154 504 627 504 C 624.238576250846 504 622 501.76142374915395 622 499 C 622 496.23857625084605 624.238576250846 494 627 494 C 629.761423749154 494 632 496.23857625084605 632 499 Z" fill-opacity="1"/><path fill="none" stroke="rgb(0,0,0)" paint-order="fill stroke markers" d=" M 632 499 C 632 501.76142374915395 629.761423749154 504 627 504 C 624.238576250846 504 622 501.76142374915395 622 499 C 622 496.23857625084605 624.238576250846 494 627 494 C 629.761423749154 494 632 496.23857625084605 632 499 Z" stroke-opacity="1" stroke-linecap="round" stroke-linejoin="round" stroke-miterlimit="10"/><path fill="rgb(211,47,47)" stroke="none" paint-order="stroke fill markers" d=" M 671 341 C 671 343.76142374915395 668.761423749154 346 666 346 C 663.238576250846 346 661 343.76142374915395 661 341 C 661 338.23857625084605 663.238576250846 336 666 336 C 668.761423749154 336 671 338.23857625084605 671 341 Z" fill-opacity="1"/><path fill="none" stroke="rgb(0,0,0)" paint-order="fill stroke markers" d=" M 671 341 C 671 343.76142374915395 668.761423749154 346 666 346 C 663.238576250846 346 661 343.76142374915395 661 341 C 661 338.23857625084605 663.238576250846 336 666 336 C 668.761423749154 336 671 338.23857625084605 671 341 Z" stroke-opacity="1" stroke-linecap="round" stroke-linejoin="round" stroke-miterlimit="10"/></g></g></svg>